{"glyphs":{"0":{"ha":1440,"x_min":89,"x_max":1351,"o":"m 1351 497 q 1298 259 1351 354 q 1156 106 1244 164 q 953 25 1067 49 q 719 1 840 1 q 478 27 593 1 q 278 111 364 53 q 140 264 192 169 q 89 497 89 358 q 142 735 89 640 q 284 888 196 831 q 485 969 372 946 q 719 993 599 993 q 957 968 843 993 q 1158 885 1071 943 q 1299 733 1246 828 q 1351 497 1351 638 m 719 167 q 901 181 815 167 q 1049 231 986 194 q 1149 333 1113 268 q 1186 497 1186 397 q 1149 661 1186 597 q 1049 762 1113 725 q 901 813 986 799 q 719 826 815 826 q 539 813 624 826 q 391 762 454 799 q 291 661 328 725 q 254 497 254 597 q 291 333 254 397 q 391 231 328 268 q 539 181 454 194 q 719 167 624 167 z "},"1":{"ha":622,"x_min":89,"x_max":533,"o":"m 444 993 l 533 993 l 533 1 l 368 1 l 368 832 l 89 696 l 89 821 l 444 993 z "},"2":{"ha":1178,"x_min":89,"x_max":1089,"o":"m 635 992 q 974 911 860 992 q 1089 692 1089 831 q 1053 569 1089 618 q 958 489 1017 521 q 826 437 900 457 q 674 400 751 417 q 523 365 596 383 q 394 319 450 347 q 306 247 338 290 q 279 139 274 204 l 1024 139 l 1024 1 l 89 1 l 89 114 q 124 269 89 206 q 217 376 160 332 q 349 447 275 419 q 499 495 422 475 q 649 531 575 515 q 780 569 722 547 q 873 620 838 590 q 908 697 908 650 q 837 802 908 764 q 629 840 765 840 q 466 823 529 840 q 363 779 403 806 q 303 723 324 753 q 265 668 282 693 l 108 721 q 215 855 147 803 q 357 937 282 907 q 506 978 432 967 q 635 992 581 990 z "},"3":{"ha":1293,"x_min":89,"x_max":1204,"o":"m 1204 701 q 1169 584 1204 639 q 1053 497 1135 529 q 1169 410 1135 465 q 1204 292 1204 356 q 1199 231 1204 264 q 1178 167 1194 199 q 1130 105 1161 135 q 1047 52 1099 75 q 919 15 994 29 q 736 1 843 1 l 560 1 q 376 19 453 1 q 248 66 300 38 q 165 132 196 94 q 117 208 133 169 q 95 283 100 246 q 90 347 90 319 l 257 347 q 266 283 257 317 q 300 219 275 249 q 369 172 325 190 q 486 153 414 153 l 828 153 q 989 190 939 153 q 1039 293 1039 226 q 1031 342 1039 318 q 1003 384 1022 365 q 953 414 985 403 q 878 425 922 425 l 450 425 l 450 569 l 872 569 q 993 606 947 569 q 1039 707 1039 643 q 1028 765 1039 740 q 992 807 1018 790 q 925 832 967 824 q 821 840 883 840 l 489 840 q 378 828 424 840 q 306 792 333 815 q 266 735 278 769 q 254 660 254 701 l 89 660 q 102 772 89 713 q 163 880 115 831 q 304 961 211 929 q 557 993 397 993 l 736 993 q 919 979 843 993 q 1047 942 994 965 q 1130 890 1099 919 q 1178 828 1161 860 q 1199 763 1194 796 q 1204 701 1204 731 z "},"4":{"ha":1272,"x_min":89,"x_max":1183,"o":"m 1047 328 l 1183 328 l 1183 189 l 1047 189 l 1047 1 l 882 1 l 882 189 l 89 189 l 89 329 l 817 993 l 1047 993 l 1047 328 m 882 860 l 308 328 l 882 328 l 882 860 z "},"5":{"ha":1294,"x_min":89,"x_max":1206,"o":"m 836 604 q 1006 581 936 604 q 1121 519 1076 558 q 1185 426 1165 479 q 1206 315 1206 374 q 1201 253 1206 288 q 1179 184 1196 219 q 1131 116 1163 149 q 1048 58 1100 83 q 919 17 996 32 q 736 1 843 1 l 560 1 q 377 19 453 1 q 249 67 301 38 q 166 134 197 96 q 118 212 135 172 q 97 290 101 251 q 92 361 92 329 l 257 361 q 268 294 257 331 q 308 227 279 258 q 385 174 336 196 q 508 153 433 153 l 807 153 q 982 198 925 153 q 1039 310 1039 243 q 1028 366 1039 339 q 991 414 1017 393 q 923 447 965 435 q 818 460 881 460 l 89 460 l 197 993 l 1122 993 l 1122 840 l 332 840 l 285 604 l 836 604 z "},"6":{"ha":1292,"x_min":89,"x_max":1203,"o":"m 733 993 q 917 975 840 993 q 1045 928 993 957 q 1128 862 1097 899 q 1176 786 1160 825 q 1198 711 1193 747 q 1203 646 1203 675 l 1036 646 q 1022 720 1036 685 q 977 782 1007 756 q 900 824 947 808 q 788 840 853 840 l 504 840 q 313 778 372 840 q 254 604 254 715 l 254 521 q 330 572 283 553 q 444 590 376 590 l 883 590 q 1024 571 964 590 q 1124 516 1085 551 q 1183 431 1164 481 q 1203 324 1203 382 q 1198 260 1203 296 q 1176 190 1193 225 q 1128 120 1160 154 q 1045 60 1097 86 q 917 17 993 33 q 733 1 840 1 l 557 1 q 374 19 450 1 q 247 66 299 38 q 163 132 194 94 q 115 208 132 169 q 94 283 99 246 q 89 347 89 319 l 89 615 q 94 683 89 644 q 115 764 99 722 q 163 847 132 806 q 247 920 194 888 q 374 973 299 953 q 557 993 450 993 l 733 993 m 254 311 q 316 197 254 240 q 486 153 378 153 l 807 153 q 899 160 857 153 q 972 185 942 167 q 1019 235 1001 203 q 1036 317 1036 267 q 992 428 1036 396 q 868 460 949 460 l 454 460 q 299 419 344 460 q 254 311 254 378 z "},"7":{"ha":1213,"x_min":89,"x_max":1124,"o":"m 89 993 l 1124 993 l 1124 840 l 594 1 l 388 1 l 943 840 l 89 840 l 89 993 z "},"8":{"ha":1296,"x_min":89,"x_max":1207,"o":"m 1207 715 q 1170 591 1207 650 q 1046 497 1133 532 q 1170 403 1133 463 q 1207 278 1207 344 q 1194 188 1207 236 q 1133 97 1181 139 q 992 28 1085 56 q 739 1 899 1 l 557 1 q 304 28 397 1 q 163 97 211 56 q 102 188 115 139 q 89 278 89 236 q 126 403 89 344 q 250 497 163 463 q 126 591 163 532 q 89 715 89 650 q 102 807 89 758 q 163 897 115 856 q 304 966 211 939 q 557 993 397 993 l 739 993 q 992 966 899 993 q 1133 897 1085 939 q 1194 807 1181 856 q 1207 715 1207 758 m 874 569 q 994 601 949 569 q 1040 696 1040 632 q 972 802 1040 764 q 778 840 904 840 l 517 840 q 322 802 390 840 q 254 696 254 764 q 300 601 254 632 q 421 569 346 569 l 874 569 m 789 153 q 890 162 843 153 q 969 190 936 171 q 1022 238 1003 208 q 1040 307 1040 267 q 1001 390 1040 356 q 879 425 961 425 l 415 425 q 294 390 333 425 q 254 307 254 356 q 273 238 254 267 q 325 190 292 208 q 405 162 358 171 q 507 153 451 153 l 789 153 z "},"9":{"ha":1292,"x_min":89,"x_max":1203,"o":"m 735 993 q 917 975 842 993 q 1045 928 993 957 q 1128 862 1097 899 q 1176 786 1160 825 q 1198 711 1193 747 q 1203 646 1203 675 l 1203 378 q 1198 311 1203 350 q 1176 231 1193 272 q 1128 148 1160 189 q 1045 74 1097 107 q 917 22 993 42 q 735 1 842 1 l 557 1 q 375 19 451 1 q 247 66 299 38 q 163 132 194 94 q 115 208 132 169 q 94 283 99 246 q 89 347 89 319 l 254 347 q 269 274 254 308 q 314 212 283 239 q 392 169 344 185 q 504 153 439 153 l 788 153 q 978 216 919 153 q 1038 390 1038 279 l 1038 472 q 961 423 1007 442 q 847 404 915 404 l 407 404 q 267 424 326 404 q 167 478 207 443 q 108 563 128 514 q 89 671 89 613 q 94 733 89 699 q 115 804 99 768 q 163 874 132 840 q 247 935 194 908 q 375 977 299 961 q 557 993 451 993 l 735 993 m 1038 683 q 976 797 1038 754 q 806 840 914 840 l 485 840 q 392 833 435 840 q 319 809 350 826 q 272 760 289 792 q 254 678 254 728 q 299 567 254 599 q 424 535 343 535 l 838 535 q 992 575 947 535 q 1038 683 1038 615 z "},"\u0000":{"ha":0,"x_min":0,"x_max":0,"o":""},"\r":{"ha":347,"x_min":0,"x_max":0,"o":""}," ":{"ha":574,"x_min":0,"x_max":0,"o":""},"A":{"ha":1496,"x_min":89,"x_max":1407,"o":"m 638 993 l 857 993 l 1407 1 l 1210 1 l 1090 217 l 406 217 l 286 1 l 89 1 l 638 993 m 1014 354 l 747 835 l 482 354 l 1014 354 z "},"B":{"ha":1442,"x_min":89,"x_max":1353,"o":"m 1353 711 q 1324 592 1353 649 q 1232 497 1294 536 q 1324 401 1294 457 q 1353 283 1353 346 q 1326 152 1353 206 q 1255 65 1300 99 q 1151 17 1210 32 q 1025 1 1092 1 l 89 1 l 89 993 l 1025 993 q 1151 978 1092 993 q 1255 929 1210 963 q 1326 842 1300 896 q 1353 711 1353 789 m 256 567 l 1006 567 q 1135 603 1085 567 q 1186 713 1186 640 q 1143 809 1186 774 q 1008 844 1100 844 l 256 844 l 256 567 m 1028 164 q 1088 172 1060 164 q 1139 197 1117 181 q 1174 239 1161 214 q 1186 299 1186 264 q 1141 396 1186 365 q 1028 426 1096 426 l 256 426 l 256 164 l 1028 164 z "},"C":{"ha":1436,"x_min":89,"x_max":1347,"o":"m 576 840 q 344 749 419 840 q 268 497 268 657 q 344 245 268 338 q 576 153 419 153 l 836 153 q 973 170 915 153 q 1070 220 1031 188 q 1132 300 1110 253 q 1164 407 1154 347 l 1347 407 q 1305 248 1336 314 q 1230 137 1274 182 q 1133 65 1186 92 q 1026 24 1081 39 q 921 6 972 10 q 828 1 869 1 l 613 1 q 512 6 568 1 q 397 28 456 11 q 283 78 339 46 q 185 166 228 111 q 115 302 142 221 q 89 497 89 383 q 115 692 89 611 q 185 828 142 774 q 283 916 228 883 q 397 966 339 949 q 512 988 456 983 q 613 993 568 993 l 828 993 q 921 989 869 993 q 1026 970 972 985 q 1133 929 1081 956 q 1230 858 1186 903 q 1305 747 1274 813 q 1347 588 1336 681 l 1164 588 q 1132 693 1154 646 q 1070 773 1110 740 q 973 823 1031 806 q 836 840 915 840 l 576 840 z "},"D":{"ha":1442,"x_min":89,"x_max":1353,"o":"m 829 993 q 930 988 874 993 q 1044 966 986 983 q 1158 916 1103 949 q 1256 828 1213 883 q 1326 692 1300 774 q 1353 497 1353 611 q 1326 302 1353 383 q 1256 166 1300 221 q 1158 78 1213 111 q 1044 28 1103 46 q 930 6 986 11 q 829 1 874 1 l 89 1 l 89 993 l 829 993 m 849 153 q 1094 240 1014 153 q 1174 497 1174 328 q 1094 753 1174 667 q 849 840 1014 840 l 256 840 l 256 153 l 849 153 z "},"E":{"ha":1257,"x_min":89,"x_max":1168,"o":"m 1168 993 l 1168 844 l 254 844 l 254 561 l 1168 561 l 1168 426 l 254 426 l 254 150 l 1168 150 l 1168 1 l 89 1 l 89 993 l 1168 993 z "},"F":{"ha":1257,"x_min":89,"x_max":1168,"o":"m 1168 993 l 1168 844 l 256 844 l 256 561 l 1168 561 l 1168 413 l 256 413 l 256 1 l 89 1 l 89 993 l 1168 993 z "},"G":{"ha":1432,"x_min":89,"x_max":1343,"o":"m 1343 535 l 1343 1 l 1210 1 l 1189 122 q 1094 58 1146 82 q 991 22 1043 35 q 890 6 939 10 q 800 1 840 1 l 613 1 q 512 6 568 1 q 397 28 456 11 q 283 78 339 46 q 185 166 228 111 q 115 302 142 221 q 89 497 89 383 q 115 692 89 611 q 185 828 142 774 q 283 916 228 883 q 397 966 339 949 q 512 988 456 983 q 613 993 568 993 l 828 993 q 919 989 868 993 q 1022 972 969 985 q 1126 933 1074 958 q 1222 866 1178 908 q 1297 762 1265 824 q 1343 614 1329 700 l 1160 614 q 1060 781 1136 721 q 836 840 985 840 l 576 840 q 344 749 419 840 q 268 497 268 657 q 344 245 268 338 q 576 153 419 153 l 850 153 q 1063 198 982 153 q 1174 329 1143 243 l 1174 407 l 588 407 l 588 535 l 1343 535 z "},"H":{"ha":1440,"x_min":89,"x_max":1351,"o":"m 1186 993 l 1351 993 l 1351 1 l 1186 1 l 1186 429 l 254 429 l 254 1 l 89 1 l 89 993 l 254 993 l 254 564 l 1186 564 l 1186 993 z "},"I":{"ha":343,"x_min":89,"x_max":254,"o":"m 89 993 l 254 993 l 254 1 l 89 1 l 89 993 z "},"J":{"ha":1322,"x_min":89,"x_max":1233,"o":"m 1067 993 l 1233 993 l 1233 497 q 1207 302 1233 383 q 1137 166 1181 221 q 1038 78 1093 111 q 925 28 983 46 q 810 6 867 11 q 710 1 754 1 l 613 1 q 512 6 568 1 q 397 28 456 11 q 283 78 339 46 q 185 166 228 111 q 115 302 142 221 q 89 497 89 383 l 254 497 q 281 334 254 400 q 352 228 307 268 q 456 170 397 188 q 576 153 514 153 l 740 153 q 985 236 903 153 q 1067 479 1067 319 l 1067 993 z "},"K":{"ha":1371,"x_min":89,"x_max":1282,"o":"m 1282 993 l 813 497 l 1282 1 l 1068 1 l 675 422 l 254 422 l 254 1 l 89 1 l 89 993 l 254 993 l 254 572 l 675 572 l 1068 993 l 1282 993 z "},"L":{"ha":1256,"x_min":89,"x_max":1167,"o":"m 1167 122 l 1167 1 l 89 1 l 89 993 l 254 993 l 254 122 l 1167 122 z "},"M":{"ha":1722,"x_min":89,"x_max":1633,"o":"m 1401 993 l 1633 993 l 1633 1 l 1468 1 l 1468 806 l 933 1 l 790 1 l 256 806 l 256 1 l 89 1 l 89 993 l 322 993 l 861 174 l 1401 993 z "},"N":{"ha":1440,"x_min":89,"x_max":1351,"o":"m 1186 993 l 1351 993 l 1351 1 l 1129 1 l 254 806 l 254 1 l 89 1 l 89 993 l 310 993 l 1186 189 l 1186 993 z "},"O":{"ha":1442,"x_min":89,"x_max":1353,"o":"m 829 993 q 930 988 874 993 q 1044 966 986 983 q 1158 916 1103 949 q 1256 828 1213 883 q 1326 692 1300 774 q 1353 497 1353 611 q 1326 302 1353 383 q 1256 166 1300 221 q 1158 78 1213 111 q 1044 28 1103 46 q 930 6 986 11 q 829 1 874 1 l 613 1 q 512 6 568 1 q 397 28 456 11 q 284 78 339 46 q 185 166 229 111 q 115 302 142 221 q 89 497 89 383 q 115 692 89 611 q 185 828 142 774 q 284 916 229 883 q 397 966 339 949 q 512 988 456 983 q 613 993 568 993 l 829 993 m 825 153 q 1001 183 933 153 q 1106 263 1068 214 q 1158 374 1144 313 q 1172 497 1172 435 q 1158 621 1172 560 q 1106 731 1144 682 q 1001 810 1068 779 q 825 840 933 840 l 617 840 q 441 810 508 840 q 335 731 374 779 q 283 621 297 682 q 269 497 269 560 q 283 374 269 435 q 335 263 297 313 q 441 183 374 214 q 617 153 508 153 l 825 153 z "},"P":{"ha":1361,"x_min":89,"x_max":1272,"o":"m 799 993 q 896 990 843 993 q 1001 974 949 986 q 1103 937 1054 961 q 1189 871 1151 913 q 1249 769 1226 829 q 1272 622 1272 708 q 1249 476 1272 536 q 1189 374 1226 415 q 1103 308 1151 332 q 1001 271 1054 283 q 896 255 949 258 q 799 251 843 251 l 256 251 l 256 1 l 89 1 l 89 993 l 799 993 m 864 403 q 1031 455 969 403 q 1093 622 1093 507 q 1031 788 1093 736 q 864 840 969 840 l 256 840 l 256 403 l 864 403 z "},"Q":{"ha":1440,"x_min":89,"x_max":1351,"o":"m 1351 497 q 1329 317 1351 393 q 1270 186 1307 240 q 1185 97 1233 132 q 1083 42 1136 63 q 978 14 1031 22 q 878 3 925 6 q 985 -70 914 -42 q 1181 -99 1056 -99 l 1351 -99 l 1351 -237 l 1214 -237 q 1016 -216 1097 -237 q 880 -160 935 -194 q 793 -84 825 -126 q 746 1 761 -42 l 613 1 q 512 6 568 1 q 397 28 456 11 q 283 78 339 46 q 185 166 228 111 q 115 302 142 221 q 89 497 89 383 q 115 692 89 611 q 185 828 142 774 q 283 916 228 883 q 397 966 339 949 q 512 988 456 983 q 613 993 568 993 l 828 993 q 928 988 872 993 q 1043 966 985 983 q 1157 916 1101 949 q 1256 828 1213 883 q 1325 692 1299 774 q 1351 497 1351 611 m 824 153 q 1000 183 932 153 q 1106 263 1068 214 q 1158 374 1144 313 q 1172 497 1172 435 q 1158 621 1172 560 q 1106 731 1144 682 q 1000 810 1068 779 q 824 840 932 840 l 617 840 q 440 810 508 840 q 334 731 372 779 q 282 621 296 682 q 268 497 268 560 q 282 374 268 435 q 334 263 296 313 q 440 183 372 214 q 617 153 508 153 l 824 153 z "},"R":{"ha":1413,"x_min":89,"x_max":1324,"o":"m 1274 622 q 1249 469 1274 532 q 1183 365 1224 407 q 1089 301 1142 324 q 981 267 1036 278 l 1324 1 l 1060 1 l 750 251 l 256 251 l 256 1 l 89 1 l 89 993 l 799 993 q 896 990 843 993 q 1001 974 949 986 q 1103 937 1054 961 q 1190 871 1153 913 q 1251 769 1228 829 q 1274 622 1274 708 m 256 403 l 864 403 q 1031 455 969 403 q 1093 622 1093 507 q 1031 788 1093 736 q 864 840 969 840 l 256 840 l 256 403 z "},"S":{"ha":1294,"x_min":89,"x_max":1206,"o":"m 256 715 q 297 633 256 661 q 404 590 338 604 q 556 572 471 576 q 731 563 642 568 q 905 547 819 558 q 1057 506 990 535 q 1165 426 1124 478 q 1206 292 1206 375 q 1200 231 1206 264 q 1178 167 1194 199 q 1130 105 1161 135 q 1047 52 1099 75 q 918 15 994 29 q 735 1 842 1 l 558 1 q 375 19 451 1 q 247 66 299 38 q 163 132 194 94 q 115 208 132 169 q 94 283 99 246 q 89 347 89 319 l 256 347 q 268 268 256 304 q 310 206 281 232 q 387 167 339 181 q 506 153 435 153 l 818 153 q 979 183 918 153 q 1040 278 1040 213 q 999 361 1040 332 q 892 404 958 390 q 740 423 825 418 q 565 433 654 428 q 390 451 475 439 q 238 494 304 464 q 130 576 171 524 q 89 715 89 629 q 102 807 89 758 q 163 897 115 856 q 305 966 211 939 q 558 993 399 993 l 735 993 q 917 975 842 993 q 1045 928 993 957 q 1128 862 1097 899 q 1176 786 1160 825 q 1198 711 1193 747 q 1203 646 1203 675 l 1038 646 q 1025 726 1038 690 q 983 787 1013 761 q 906 826 954 813 q 788 840 858 840 l 475 840 q 315 811 375 840 q 256 715 256 782 z "},"T":{"ha":1178,"x_min":89,"x_max":1089,"o":"m 89 993 l 1089 993 l 1089 840 l 668 840 l 668 1 l 501 1 l 501 840 l 89 840 l 89 993 z "},"U":{"ha":1442,"x_min":89,"x_max":1353,"o":"m 1186 993 l 1353 993 l 1353 497 q 1326 302 1353 383 q 1256 166 1300 221 q 1158 78 1213 111 q 1044 28 1103 46 q 930 6 986 11 q 829 1 874 1 l 613 1 q 512 6 568 1 q 397 28 456 11 q 284 78 339 46 q 185 166 229 111 q 115 302 142 221 q 89 497 89 383 l 89 993 l 254 993 l 254 497 q 282 333 254 399 q 357 226 310 267 q 467 169 404 186 q 600 153 529 153 l 842 153 q 975 169 913 153 q 1084 226 1038 186 q 1158 333 1131 267 q 1186 497 1186 399 l 1186 993 z "},"V":{"ha":1496,"x_min":89,"x_max":1407,"o":"m 1210 993 l 1407 993 l 858 1 l 639 1 l 89 993 l 286 993 l 749 160 l 1210 993 z "},"W":{"ha":2092,"x_min":89,"x_max":2003,"o":"m 2003 993 l 1600 1 l 1364 1 l 1046 719 l 728 1 l 492 1 l 89 993 l 272 993 l 617 146 l 988 993 l 1104 993 l 1475 146 l 1819 993 l 2003 993 z "},"X":{"ha":1463,"x_min":89,"x_max":1374,"o":"m 1374 990 l 856 496 l 1374 0 l 1125 0 l 731 389 l 336 0 l 89 0 l 606 496 l 89 990 l 336 990 l 731 601 l 1125 990 l 1374 990 z "},"Y":{"ha":1447,"x_min":89,"x_max":1358,"o":"m 1358 990 l 807 354 l 807 0 l 640 0 l 640 354 l 89 990 l 314 990 l 724 508 l 1133 990 l 1358 990 z "},"Z":{"ha":1442,"x_min":89,"x_max":1353,"o":"m 1353 849 l 368 151 l 1353 151 l 1353 0 l 89 0 l 89 142 l 1074 839 l 103 839 l 103 990 l 1353 990 l 1353 849 z "},"a":{"ha":1442,"x_min":89,"x_max":1353,"o":"m 829 993 q 930 988 874 993 q 1044 966 986 983 q 1158 916 1103 949 q 1256 828 1213 883 q 1326 692 1300 774 q 1353 497 1353 611 l 1353 1 l 1186 1 l 1186 246 l 256 246 l 256 1 l 89 1 l 89 497 q 115 692 89 611 q 185 828 142 774 q 284 916 229 883 q 397 966 339 949 q 512 988 456 983 q 613 993 568 993 l 829 993 m 1186 379 l 1186 539 q 1119 760 1186 681 q 911 840 1053 840 l 531 840 q 322 760 389 840 q 256 539 256 681 l 256 379 l 1186 379 z "},"b":{"ha":1442,"x_min":89,"x_max":1353,"o":"m 1353 711 q 1324 592 1353 649 q 1232 497 1294 536 q 1324 401 1294 457 q 1353 283 1353 346 q 1326 152 1353 206 q 1255 65 1300 99 q 1151 17 1210 32 q 1025 1 1092 1 l 89 1 l 89 993 l 1025 993 q 1151 978 1092 993 q 1255 929 1210 963 q 1326 842 1300 896 q 1353 711 1353 789 m 256 567 l 1006 567 q 1135 603 1085 567 q 1186 713 1186 640 q 1143 809 1186 774 q 1008 844 1100 844 l 256 844 l 256 567 m 1028 164 q 1088 172 1060 164 q 1139 197 1117 181 q 1174 239 1161 214 q 1186 299 1186 264 q 1141 396 1186 365 q 1028 426 1096 426 l 256 426 l 256 164 l 1028 164 z "},"c":{"ha":1436,"x_min":89,"x_max":1347,"o":"m 576 840 q 344 749 419 840 q 268 497 268 657 q 344 245 268 338 q 576 153 419 153 l 836 153 q 973 170 915 153 q 1070 220 1031 188 q 1132 300 1110 253 q 1164 407 1154 347 l 1347 407 q 1305 248 1336 314 q 1230 137 1274 182 q 1133 65 1186 92 q 1026 24 1081 39 q 921 6 972 10 q 828 1 869 1 l 613 1 q 512 6 568 1 q 397 28 456 11 q 283 78 339 46 q 185 166 228 111 q 115 302 142 221 q 89 497 89 383 q 115 692 89 611 q 185 828 142 774 q 283 916 228 883 q 397 966 339 949 q 512 988 456 983 q 613 993 568 993 l 828 993 q 921 989 869 993 q 1026 970 972 985 q 1133 929 1081 956 q 1230 858 1186 903 q 1305 747 1274 813 q 1347 588 1336 681 l 1164 588 q 1132 693 1154 646 q 1070 773 1110 740 q 973 823 1031 806 q 836 840 915 840 l 576 840 z "},"d":{"ha":1442,"x_min":89,"x_max":1353,"o":"m 829 993 q 930 988 874 993 q 1044 966 986 983 q 1158 916 1103 949 q 1256 828 1213 883 q 1326 692 1300 774 q 1353 497 1353 611 q 1326 302 1353 383 q 1256 166 1300 221 q 1158 78 1213 111 q 1044 28 1103 46 q 930 6 986 11 q 829 1 874 1 l 89 1 l 89 993 l 829 993 m 849 153 q 1094 240 1014 153 q 1174 497 1174 328 q 1094 753 1174 667 q 849 840 1014 840 l 256 840 l 256 153 l 849 153 z "},"e":{"ha":1439,"x_min":89,"x_max":1350,"o":"m 903 993 q 1076 965 994 993 q 1218 877 1157 936 q 1315 728 1279 818 q 1350 514 1350 638 q 1350 472 1350 490 q 1349 438 1350 453 q 1347 406 1349 419 l 275 406 q 313 290 286 338 q 378 211 339 242 q 468 167 418 181 q 576 153 518 153 l 911 153 q 1027 169 981 153 q 1103 213 1074 186 q 1147 271 1132 239 q 1165 333 1161 303 l 1347 333 q 1304 208 1336 261 q 1228 119 1272 156 q 1132 59 1185 82 q 1026 23 1079 36 q 921 6 972 10 q 828 1 869 1 l 613 1 q 512 6 568 1 q 397 28 456 11 q 283 78 339 46 q 185 166 228 111 q 115 302 142 221 q 89 497 89 383 q 115 692 89 611 q 185 828 142 774 q 283 916 228 883 q 397 966 339 949 q 512 988 456 983 q 613 993 568 993 l 903 993 m 547 840 q 351 762 422 840 q 269 536 279 683 l 1164 536 q 1147 662 1163 606 q 1097 758 1131 718 q 1010 819 1064 797 q 879 840 957 840 l 547 840 z "},"f":{"ha":1257,"x_min":89,"x_max":1168,"o":"m 1168 993 l 1168 844 l 256 844 l 256 561 l 1168 561 l 1168 413 l 256 413 l 256 1 l 89 1 l 89 993 l 1168 993 z "},"g":{"ha":1432,"x_min":89,"x_max":1343,"o":"m 1343 535 l 1343 1 l 1210 1 l 1189 122 q 1094 58 1146 82 q 991 22 1043 35 q 890 6 939 10 q 800 1 840 1 l 613 1 q 512 6 568 1 q 397 28 456 11 q 283 78 339 46 q 185 166 228 111 q 115 302 142 221 q 89 497 89 383 q 115 692 89 611 q 185 828 142 774 q 283 916 228 883 q 397 966 339 949 q 512 988 456 983 q 613 993 568 993 l 828 993 q 919 989 868 993 q 1022 972 969 985 q 1126 933 1074 958 q 1222 866 1178 908 q 1297 762 1265 824 q 1343 614 1329 700 l 1160 614 q 1060 781 1136 721 q 836 840 985 840 l 576 840 q 344 749 419 840 q 268 497 268 657 q 344 245 268 338 q 576 153 419 153 l 850 153 q 1063 198 982 153 q 1174 329 1143 243 l 1174 407 l 588 407 l 588 535 l 1343 535 z "},"h":{"ha":1442,"x_min":89,"x_max":1353,"o":"m 1188 993 l 1353 993 l 1353 1 l 1188 1 l 1188 429 l 256 429 l 256 1 l 89 1 l 89 993 l 256 993 l 256 564 l 1188 564 l 1188 993 z "},"i":{"ha":888,"x_min":89,"x_max":799,"o":"m 89 993 l 799 993 l 799 868 l 529 868 l 529 125 l 799 125 l 799 1 l 89 1 l 89 125 l 361 125 l 361 868 l 89 868 l 89 993 z "},"j":{"ha":344,"x_min":-214,"x_max":256,"o":"m 90 993 l 256 993 l 256 85 q 140 -272 256 -146 q -214 -397 25 -397 l -214 -253 q 11 -186 -68 -253 q 90 15 90 -119 l 90 993 z "},"k":{"ha":1331,"x_min":89,"x_max":1242,"o":"m 1242 993 l 731 581 l 1242 1 l 1019 1 l 601 475 l 256 196 l 256 1 l 89 1 l 89 993 l 256 993 l 256 397 l 992 993 l 1242 993 z "},"l":{"ha":1256,"x_min":89,"x_max":1167,"o":"m 254 122 l 1167 122 l 1167 1 l 89 1 l 89 993 l 254 993 l 254 122 z "},"m":{"ha":2076,"x_min":89,"x_max":1988,"o":"m 1524 1007 q 1688 985 1606 1007 q 1838 906 1771 963 q 1946 749 1904 849 q 1988 497 1988 650 l 1988 1 l 1808 1 l 1808 553 q 1788 670 1808 615 q 1730 766 1768 725 q 1638 831 1692 807 q 1517 854 1583 854 q 1341 816 1415 854 q 1217 723 1267 778 q 1144 606 1168 668 q 1121 497 1121 544 l 1121 1 l 942 1 l 942 553 q 922 670 942 615 q 864 766 901 725 q 772 831 826 807 q 650 854 718 854 q 474 816 549 854 q 351 723 400 778 q 279 606 303 668 q 256 497 256 544 l 256 1 l 89 1 l 89 993 l 256 993 l 256 792 q 343 894 293 853 q 448 960 393 935 q 558 996 503 985 q 658 1007 613 1007 q 785 994 721 1007 q 908 949 850 981 q 1013 863 965 917 q 1088 726 1060 808 q 1174 860 1121 806 q 1287 947 1226 914 q 1410 993 1347 979 q 1524 1007 1472 1007 z "},"n":{"ha":1442,"x_min":89,"x_max":1353,"o":"m 1172 0 l 1172 501 q 1142 676 1172 607 q 1057 787 1111 746 q 928 844 1003 828 q 765 861 853 861 q 567 824 660 861 q 406 731 475 788 q 296 607 336 675 q 256 478 256 539 l 256 0 l 89 0 l 89 990 l 256 990 l 256 754 q 362 863 300 817 q 494 941 424 910 q 640 988 565 972 q 783 1004 715 1004 q 999 983 896 1004 q 1180 908 1101 963 q 1306 760 1258 854 q 1353 517 1353 665 l 1353 0 l 1172 0 z "},"o":{"ha":1442,"x_min":89,"x_max":1353,"o":"m 829 993 q 930 988 874 993 q 1044 966 986 983 q 1158 916 1103 949 q 1256 828 1213 883 q 1326 692 1300 774 q 1353 497 1353 611 q 1326 302 1353 383 q 1256 166 1300 221 q 1158 78 1213 111 q 1044 28 1103 46 q 930 6 986 11 q 829 1 874 1 l 613 1 q 512 6 568 1 q 397 28 456 11 q 284 78 339 46 q 185 166 229 111 q 115 302 142 221 q 89 497 89 383 q 115 692 89 611 q 185 828 142 774 q 284 916 229 883 q 397 966 339 949 q 512 988 456 983 q 613 993 568 993 l 829 993 m 825 153 q 1001 183 933 153 q 1106 263 1068 214 q 1158 374 1144 313 q 1172 497 1172 435 q 1158 621 1172 560 q 1106 731 1144 682 q 1001 810 1068 779 q 825 840 933 840 l 617 840 q 441 810 508 840 q 335 731 374 779 q 283 621 297 682 q 269 497 269 560 q 283 374 269 435 q 335 263 297 313 q 441 183 374 214 q 617 153 508 153 l 825 153 z "},"p":{"ha":1361,"x_min":89,"x_max":1272,"o":"m 797 993 q 894 990 842 993 q 1000 974 947 986 q 1102 937 1053 961 q 1189 871 1151 913 q 1249 769 1226 829 q 1272 622 1272 708 q 1249 476 1272 536 q 1189 374 1226 415 q 1102 308 1151 332 q 1000 271 1053 283 q 894 255 947 258 q 797 251 842 251 l 254 251 l 254 1 l 89 1 l 89 993 l 797 993 m 863 403 q 1030 455 968 403 q 1092 622 1092 507 q 1030 788 1092 736 q 863 840 968 840 l 254 840 l 254 403 l 863 403 z "},"q":{"ha":1440,"x_min":89,"x_max":1351,"o":"m 1351 497 q 1329 317 1351 393 q 1270 186 1307 240 q 1185 97 1233 132 q 1083 42 1136 63 q 978 14 1031 22 q 878 3 925 6 q 985 -70 914 -42 q 1179 -99 1056 -99 l 1351 -99 l 1351 -237 l 1214 -237 q 1016 -216 1097 -237 q 880 -160 935 -194 q 793 -84 825 -126 q 746 1 761 -42 l 613 1 q 512 6 568 1 q 397 28 456 11 q 283 78 339 46 q 185 166 228 111 q 115 302 142 221 q 89 497 89 383 q 115 692 89 611 q 185 828 142 774 q 283 916 228 883 q 397 966 339 949 q 512 988 456 983 q 613 993 568 993 l 828 993 q 928 988 872 993 q 1043 966 985 983 q 1157 916 1101 949 q 1256 828 1213 883 q 1325 692 1299 774 q 1351 497 1351 611 m 824 153 q 1000 183 932 153 q 1106 263 1068 214 q 1158 374 1144 313 q 1172 497 1172 435 q 1158 621 1172 560 q 1106 731 1144 682 q 1000 810 1068 779 q 824 840 932 840 l 617 840 q 440 810 508 840 q 334 731 372 779 q 282 621 296 682 q 268 497 268 560 q 282 374 268 435 q 334 263 296 313 q 440 183 372 214 q 617 153 508 153 l 824 153 z "},"r":{"ha":1363,"x_min":89,"x_max":1274,"o":"m 1274 664 q 1229 494 1274 558 q 1118 394 1185 429 q 974 347 1051 358 q 829 335 896 335 l 668 335 q 732 281 692 308 q 835 231 772 253 q 987 194 897 208 q 1197 181 1076 181 l 1274 181 l 1274 1 q 1060 15 1174 1 q 840 67 946 29 q 648 169 735 104 q 515 335 561 233 l 256 335 l 256 1 l 89 1 l 89 993 l 868 993 q 1007 978 935 993 q 1138 927 1079 964 q 1235 826 1197 890 q 1274 664 1274 763 m 256 472 l 832 472 q 933 482 886 472 q 1016 513 981 492 q 1072 571 1051 535 q 1093 660 1093 607 q 1081 737 1093 703 q 1042 794 1069 771 q 970 828 1015 817 q 860 840 925 840 l 256 840 l 256 472 z "},"s":{"ha":1294,"x_min":89,"x_max":1206,"o":"m 256 715 q 297 633 256 661 q 404 590 338 604 q 556 572 471 576 q 731 563 642 568 q 905 547 819 558 q 1057 506 990 535 q 1165 426 1124 478 q 1206 292 1206 375 q 1200 231 1206 264 q 1178 167 1194 199 q 1130 105 1161 135 q 1047 52 1099 75 q 918 15 994 29 q 735 1 842 1 l 558 1 q 375 19 451 1 q 247 66 299 38 q 163 132 194 94 q 115 208 132 169 q 94 283 99 246 q 89 347 89 319 l 256 347 q 268 268 256 304 q 310 206 281 232 q 387 167 339 181 q 506 153 435 153 l 818 153 q 979 183 918 153 q 1040 278 1040 213 q 999 361 1040 332 q 892 404 958 390 q 740 423 825 418 q 565 433 654 428 q 390 451 475 439 q 238 494 304 464 q 130 576 171 524 q 89 715 89 629 q 102 807 89 758 q 163 897 115 856 q 305 966 211 939 q 558 993 399 993 l 735 993 q 917 975 842 993 q 1045 928 993 957 q 1128 862 1097 899 q 1176 786 1160 825 q 1198 711 1193 747 q 1203 646 1203 675 l 1038 646 q 1025 726 1038 690 q 983 787 1013 761 q 906 826 954 813 q 788 840 858 840 l 475 840 q 315 811 375 840 q 256 715 256 782 z "},"t":{"ha":1176,"x_min":89,"x_max":1088,"o":"m 89 993 l 1088 993 l 1088 840 l 667 840 l 667 1 l 501 1 l 501 840 l 89 840 l 89 993 z "},"u":{"ha":1440,"x_min":89,"x_max":1351,"o":"m 268 993 l 268 492 q 299 317 268 386 q 383 206 329 247 q 513 149 438 165 q 675 132 588 132 q 874 169 781 132 q 1036 262 967 206 q 1146 386 1106 318 q 1186 515 1186 454 l 1186 993 l 1351 993 l 1351 1 l 1186 1 l 1186 238 q 1080 128 1143 175 q 946 51 1017 82 q 800 3 875 19 q 657 -12 725 -12 q 442 8 544 -12 q 260 83 339 29 q 135 232 182 138 q 89 475 89 326 l 89 993 l 268 993 z "},"v":{"ha":1496,"x_min":89,"x_max":1407,"o":"m 1210 993 l 1407 993 l 857 1 l 638 1 l 89 993 l 286 993 l 747 160 l 1210 993 z "},"w":{"ha":2086,"x_min":89,"x_max":1997,"o":"m 1832 993 l 1997 993 l 1997 497 q 1972 302 1997 383 q 1903 166 1946 221 q 1806 78 1861 111 q 1694 28 1751 46 q 1582 6 1638 11 q 1482 1 1526 1 l 1476 1 q 1373 7 1431 1 q 1256 31 1315 13 q 1140 86 1196 50 q 1043 182 1085 122 q 946 86 1001 122 q 831 31 890 50 q 713 7 771 13 q 610 1 656 1 l 606 1 q 506 6 561 1 q 392 28 450 11 q 280 78 335 46 q 183 166 225 111 q 115 302 140 221 q 89 497 89 383 l 89 993 l 254 993 l 254 497 q 282 333 254 399 q 356 226 310 267 q 465 169 403 186 q 599 153 528 153 l 615 153 q 749 169 686 153 q 858 226 811 186 q 932 333 904 267 q 960 497 960 399 l 960 993 l 1126 993 l 1126 497 q 1154 333 1126 399 q 1228 226 1182 267 q 1338 169 1275 186 q 1471 153 1400 153 l 1488 153 q 1621 169 1558 153 q 1730 226 1683 186 q 1804 333 1776 267 q 1832 497 1832 399 l 1832 993 z "},"x":{"ha":1463,"x_min":89,"x_max":1374,"o":"m 1374 993 l 856 497 l 1374 1 l 1126 1 l 732 392 l 338 1 l 89 1 l 607 497 l 89 993 l 338 993 l 732 603 l 1126 993 l 1374 993 z "},"y":{"ha":1442,"x_min":89,"x_max":1353,"o":"m 1353 993 l 1353 497 q 1326 302 1353 383 q 1256 166 1300 221 q 1158 78 1213 111 q 1044 28 1103 46 q 930 6 986 11 q 829 1 874 1 l 511 1 q 351 21 424 1 q 224 76 279 40 q 135 164 169 113 q 89 279 100 215 l 236 328 q 279 240 246 279 q 313 208 293 224 q 360 181 332 193 q 424 160 388 168 q 506 153 460 153 l 868 153 q 999 171 940 153 q 1099 226 1057 189 q 1163 316 1140 263 q 1186 440 1186 369 l 1186 489 q 1097 438 1144 457 q 1001 409 1049 419 q 910 395 954 399 q 829 392 865 392 l 613 392 q 512 397 568 392 q 397 419 456 401 q 284 469 339 436 q 185 556 229 501 q 115 692 142 611 q 89 888 89 774 l 89 993 l 256 993 l 256 846 q 335 624 256 704 q 578 544 414 544 l 911 544 q 1119 624 1053 544 q 1186 846 1186 704 l 1186 993 l 1353 993 z "},"z":{"ha":1440,"x_min":89,"x_max":1351,"o":"m 1351 850 l 367 153 l 1351 153 l 1351 1 l 89 1 l 89 144 l 1074 840 l 103 840 l 103 993 l 1351 993 l 1351 850 z "},"¼":{"ha":1693,"x_min":89,"x_max":1604,"o":"m 1038 993 l 463 1 l 350 1 l 926 993 l 1038 993 m 251 267 l 251 839 l 89 760 l 89 867 l 349 993 l 389 993 l 389 267 l 251 267 m 1272 728 q 1416 710 1354 728 q 1519 665 1478 693 q 1583 599 1561 636 q 1604 521 1604 561 q 1579 432 1604 468 q 1513 371 1554 396 q 1420 330 1472 346 q 1313 300 1368 314 q 1205 272 1258 286 q 1109 238 1151 258 q 1040 190 1067 218 q 1010 118 1013 161 l 1557 118 l 1557 1 l 871 1 l 871 85 q 896 205 871 156 q 963 287 921 254 q 1056 340 1004 319 q 1164 376 1108 361 q 1272 402 1219 390 q 1365 430 1324 414 q 1432 468 1407 446 q 1457 525 1457 490 q 1404 592 1457 565 q 1268 619 1351 619 q 1168 608 1211 619 q 1092 575 1125 596 q 1035 527 1060 554 q 992 469 1011 500 l 886 529 q 963 627 914 589 q 1068 687 1013 665 q 1178 717 1124 708 q 1272 728 1233 726 z "},"½":{"ha":1626,"x_min":89,"x_max":1538,"o":"m 253 267 l 253 839 l 89 760 l 89 867 l 349 993 l 390 993 l 390 267 l 253 267 m 1039 993 l 463 1 l 350 1 l 926 993 l 1039 993 m 1439 256 l 1538 256 l 1538 139 l 1439 139 l 1439 1 l 1301 1 l 1301 139 l 736 139 l 736 242 l 1244 728 l 1439 728 l 1439 256 m 1301 619 l 928 256 l 1301 256 l 1301 619 z "},"¾":{"ha":2104,"x_min":89,"x_max":2015,"o":"m 907 490 q 897 421 907 460 q 853 347 888 382 q 749 290 818 313 q 564 267 681 267 l 435 267 q 249 294 318 267 q 145 363 181 322 q 100 447 110 403 q 90 521 90 490 l 228 521 q 265 431 228 468 q 368 393 303 393 l 658 393 q 699 399 679 393 q 734 417 718 406 q 760 444 750 428 q 769 483 769 461 q 747 549 769 524 q 663 575 724 575 l 354 575 l 354 685 l 665 685 q 742 709 714 685 q 769 781 769 733 q 737 845 769 825 q 657 865 704 865 l 340 865 q 226 749 226 865 l 89 749 q 99 831 89 788 q 144 910 108 874 q 247 969 179 946 q 432 993 315 993 l 564 993 q 749 970 681 993 q 853 913 818 947 q 897 840 888 878 q 907 769 907 801 q 887 691 907 728 q 818 629 867 654 q 887 569 867 606 q 907 490 907 532 m 1482 993 l 907 1 l 794 1 l 1371 993 l 1482 993 m 1917 256 l 2015 256 l 2015 139 l 1917 139 l 1917 1 l 1779 1 l 1779 139 l 1214 139 l 1214 242 l 1722 728 l 1917 728 l 1917 256 m 1779 619 l 1406 256 l 1779 256 l 1779 619 z "},"`":{"ha":614,"x_min":89,"x_max":525,"o":"m 399 783 l 89 1099 l 333 1099 l 525 783 l 399 783 z "},"´":{"ha":614,"x_min":89,"x_max":525,"o":"m 215 781 l 89 781 l 282 1096 l 525 1096 l 215 781 z "},"~":{"ha":929,"x_min":89,"x_max":840,"o":"m 658 504 q 736 515 703 504 q 793 540 769 526 q 840 576 821 556 l 840 449 q 794 413 822 428 q 734 388 771 399 q 646 376 697 376 q 542 393 588 376 q 455 430 496 410 q 372 467 414 450 q 279 483 331 483 q 192 469 228 483 q 132 438 156 454 q 89 390 106 417 l 89 518 q 132 565 106 544 q 192 597 156 582 q 279 611 228 611 q 388 594 342 611 q 476 558 435 578 q 560 521 518 538 q 658 504 603 504 z "},"˜":{"ha":929,"x_min":89,"x_max":840,"o":"m 658 897 q 736 911 703 897 q 793 940 769 925 q 840 983 821 960 l 840 869 q 794 826 822 846 q 734 797 771 811 q 646 783 697 783 q 542 800 588 783 q 456 837 497 817 q 372 874 414 857 q 281 890 331 890 q 192 874 228 890 q 133 838 157 857 q 89 783 106 814 l 89 911 q 133 958 106 938 q 192 991 157 976 q 281 1006 228 1006 q 389 989 343 1006 q 476 951 435 972 q 560 914 518 931 q 658 897 603 897 z "},"ˇ":{"ha":988,"x_min":89,"x_max":899,"o":"m 411 783 l 89 1138 l 269 1138 l 494 879 l 718 1138 l 899 1138 l 578 783 l 411 783 z "},"ˆ":{"ha":989,"x_min":89,"x_max":900,"o":"m 900 783 l 719 783 l 494 1042 l 269 783 l 89 783 l 411 1138 l 578 1138 l 900 783 z "},"¨":{"ha":718,"x_min":89,"x_max":629,"o":"m 207 783 q 160 792 182 783 q 123 814 139 800 q 98 847 107 828 q 89 888 89 867 q 124 962 89 932 q 207 992 158 992 q 292 962 257 992 q 326 888 326 932 q 292 814 326 844 q 207 783 257 783 m 510 992 q 594 962 560 992 q 629 888 629 932 q 594 814 629 844 q 510 783 560 783 q 463 792 485 783 q 426 814 442 800 q 401 847 410 828 q 392 888 392 867 q 426 962 392 932 q 510 992 461 992 z "},"˚":{"ha":614,"x_min":89,"x_max":525,"o":"m 307 782 q 222 797 261 782 q 153 838 182 813 q 106 899 124 864 q 89 974 89 935 q 106 1049 89 1014 q 153 1109 124 1083 q 222 1150 182 1135 q 307 1165 261 1165 q 392 1150 353 1165 q 461 1109 432 1135 q 508 1049 490 1083 q 525 974 525 1014 q 508 899 525 935 q 461 838 490 864 q 392 797 432 813 q 307 782 353 782 m 307 1097 q 240 1061 267 1097 q 213 974 213 1025 q 240 886 213 922 q 307 850 267 850 q 374 886 346 850 q 401 974 401 922 q 374 1061 401 1025 q 307 1097 346 1097 z "},"⁴":{"ha":979,"x_min":89,"x_max":890,"o":"m 792 521 l 890 521 l 890 404 l 792 404 l 792 267 l 654 267 l 654 404 l 89 404 l 89 507 l 597 993 l 792 993 l 792 521 m 654 885 l 281 521 l 654 521 l 654 885 z "},"²":{"ha":910,"x_min":89,"x_max":821,"o":"m 489 992 q 633 974 571 992 q 738 928 696 957 q 800 863 779 900 q 821 786 821 826 q 778 674 821 715 q 670 606 735 632 q 530 565 606 581 q 388 527 454 549 q 277 473 322 506 q 228 383 232 440 l 774 383 l 774 267 l 89 267 l 89 350 q 132 501 89 444 q 240 590 175 557 q 381 642 306 624 q 522 677 457 660 q 631 719 588 694 q 674 790 674 743 q 622 858 674 831 q 485 885 569 885 q 385 873 428 885 q 310 840 343 861 q 253 792 278 819 q 210 735 229 765 l 103 794 q 181 891 132 853 q 285 951 231 929 q 395 983 340 974 q 489 992 450 992 z "},"³":{"ha":996,"x_min":89,"x_max":907,"o":"m 818 629 q 887 569 867 606 q 907 490 907 532 q 897 421 907 460 q 852 347 888 382 q 749 290 817 313 q 564 267 681 267 l 433 267 q 249 294 317 267 q 145 363 181 322 q 100 447 110 403 q 90 521 90 490 l 228 521 q 265 431 228 468 q 368 393 303 393 l 658 393 q 699 399 679 393 q 734 417 718 406 q 760 444 750 428 q 769 483 769 461 q 747 549 769 524 q 663 575 724 575 l 354 575 l 354 685 l 665 685 q 742 709 714 685 q 769 781 769 733 q 737 845 769 825 q 657 865 704 865 l 339 865 q 256 836 285 865 q 226 749 226 807 l 89 749 q 99 831 89 788 q 144 910 108 874 q 247 969 179 946 q 432 993 315 993 l 564 993 q 749 970 681 993 q 852 913 817 947 q 897 840 888 878 q 907 769 907 801 q 887 691 907 728 q 818 629 867 654 z "},"¹":{"ha":478,"x_min":89,"x_max":389,"o":"m 347 993 l 389 993 l 389 267 l 251 267 l 251 839 l 89 760 l 89 867 l 347 993 z "},"•":{"ha":513,"x_min":89,"x_max":424,"o":"m 256 644 q 321 633 290 644 q 374 601 351 621 q 410 555 397 582 q 424 497 424 528 q 410 440 424 467 q 374 392 397 413 q 321 360 351 372 q 256 349 290 349 q 191 360 221 349 q 138 392 161 372 q 102 440 115 413 q 89 497 89 467 q 102 555 89 528 q 138 601 115 582 q 191 633 161 621 q 256 644 221 644 z "},"¸":{"ha":757,"x_min":89,"x_max":669,"o":"m 397 -99 q 551 -129 490 -99 q 640 -206 611 -160 q 667 -304 669 -251 q 632 -403 665 -357 q 535 -479 599 -449 q 379 -510 472 -510 q 255 -494 308 -510 q 164 -460 201 -479 q 89 -410 121 -437 l 151 -311 q 210 -342 178 -328 q 276 -362 238 -353 q 361 -372 315 -372 q 474 -346 436 -372 q 513 -287 513 -319 q 474 -228 513 -254 q 361 -201 436 -201 l 178 -201 l 178 114 l 318 114 l 318 -99 l 397 -99 z "},"–":{"ha":865,"x_min":89,"x_max":776,"o":"m 89 563 l 776 563 l 776 431 l 89 431 l 89 563 z "},"—":{"ha":1024,"x_min":89,"x_max":935,"o":"m 89 563 l 935 563 l 935 431 l 89 431 l 89 563 z "},"−":{"ha":867,"x_min":89,"x_max":778,"o":"m 89 563 l 778 563 l 778 431 l 89 431 l 89 563 z "},"-":{"ha":719,"x_min":89,"x_max":631,"o":"m 89 563 l 631 563 l 631 431 l 89 431 l 89 563 z "},"*":{"ha":882,"x_min":89,"x_max":793,"o":"m 793 872 l 506 826 l 711 619 l 574 519 l 442 779 l 308 519 l 171 619 l 376 826 l 89 872 l 142 1033 l 401 901 l 357 1189 l 526 1189 l 481 901 l 740 1033 l 793 872 z "},"+":{"ha":874,"x_min":89,"x_max":785,"o":"m 500 560 l 785 560 l 785 435 l 500 435 l 500 149 l 374 149 l 374 435 l 89 435 l 89 560 l 374 560 l 374 846 l 500 846 l 500 560 z "},"=":{"ha":933,"x_min":89,"x_max":844,"o":"m 89 626 l 844 626 l 844 500 l 89 500 l 89 626 m 89 390 l 844 390 l 844 264 l 89 264 l 89 390 z "},"≈":{"ha":878,"x_min":89,"x_max":789,"o":"m 621 606 q 694 617 663 606 q 746 642 725 628 q 789 676 771 657 l 789 582 q 746 547 772 563 q 690 524 724 535 q 608 513 657 513 q 512 526 554 513 q 431 556 469 540 q 353 586 392 572 q 267 600 314 600 q 185 586 218 600 q 131 557 151 572 q 89 513 104 538 l 89 606 q 131 650 104 631 q 185 679 151 665 q 267 693 218 693 q 368 679 325 693 q 450 649 411 665 q 529 619 489 633 q 621 606 569 606 m 621 400 q 694 411 663 400 q 746 435 725 422 q 789 469 771 450 l 789 376 q 746 342 772 357 q 690 317 724 328 q 608 306 657 306 q 512 319 554 306 q 431 349 469 333 q 353 379 392 365 q 267 393 314 393 q 185 379 218 393 q 131 350 151 365 q 89 306 104 331 l 89 400 q 131 444 104 425 q 185 474 151 460 q 267 488 218 488 q 368 474 325 488 q 450 444 411 460 q 529 414 489 428 q 621 400 569 400 z "},"_":{"ha":972,"x_min":89,"x_max":883,"o":"m 89 1 l 883 1 l 883 -89 l 89 -89 l 89 1 z "},"×":{"ha":760,"x_min":89,"x_max":671,"o":"m 468 497 l 669 296 l 582 207 l 381 408 l 178 206 l 89 296 l 292 497 l 90 699 l 178 788 l 379 586 l 582 789 l 671 699 l 468 497 z "},"±":{"ha":754,"x_min":89,"x_max":665,"o":"m 440 658 l 665 658 l 665 532 l 440 532 l 440 347 l 314 347 l 314 532 l 89 532 l 89 658 l 314 658 l 314 843 l 440 843 l 440 658 m 89 269 l 665 269 l 665 157 l 89 157 l 89 269 z "},"\"":{"ha":585,"x_min":89,"x_max":496,"o":"m 89 1036 l 268 1036 l 231 674 l 128 674 l 89 1036 m 496 1036 l 458 674 l 354 674 l 317 1036 l 496 1036 z "},"'":{"ha":357,"x_min":89,"x_max":268,"o":"m 89 1036 l 268 1036 l 229 674 l 126 674 l 89 1036 z "},".":{"ha":385,"x_min":89,"x_max":296,"o":"m 192 207 q 265 177 235 207 q 296 104 296 147 q 265 31 296 61 q 192 1 235 1 q 119 31 149 1 q 89 104 89 61 q 119 177 89 147 q 192 207 149 207 z "},",":{"ha":475,"x_min":89,"x_max":386,"o":"m 179 189 l 386 189 l 201 -151 l 89 -151 l 179 189 z "},"^":{"ha":1199,"x_min":89,"x_max":1110,"o":"m 685 1189 l 1110 497 l 908 497 l 600 1040 l 290 497 l 89 497 l 515 1189 l 685 1189 z "},"©":{"ha":1140,"x_min":89,"x_max":1051,"o":"m 569 1147 q 757 1124 669 1147 q 910 1056 844 1101 q 1014 941 976 1010 q 1051 779 1051 872 q 1014 617 1051 686 q 910 501 976 547 q 757 433 844 456 q 569 410 669 410 q 382 433 469 410 q 229 501 294 456 q 126 617 164 547 q 89 779 89 686 q 126 941 89 872 q 229 1056 164 1010 q 382 1124 294 1101 q 569 1147 469 1147 m 569 489 q 721 507 650 489 q 844 561 792 525 q 928 651 897 597 q 958 779 958 706 q 928 907 958 853 q 844 997 897 961 q 721 1050 792 1032 q 569 1068 650 1068 q 418 1050 489 1068 q 294 997 347 1032 q 211 907 242 961 q 181 779 181 853 q 211 651 181 706 q 294 561 242 597 q 418 507 347 525 q 569 489 489 489 m 508 896 q 458 885 478 896 q 428 857 439 874 q 414 819 418 840 q 410 779 410 799 q 414 739 410 760 q 428 701 418 718 q 458 672 439 683 q 508 661 478 661 l 625 661 q 702 685 679 661 q 729 740 725 710 l 833 740 q 801 649 826 682 q 744 598 776 615 q 678 576 713 581 q 617 571 643 571 l 526 571 q 460 576 499 571 q 388 603 422 582 q 331 665 354 624 q 307 778 307 707 l 307 779 q 331 892 307 850 q 388 954 354 933 q 460 981 422 975 q 526 986 499 986 l 617 986 q 678 981 643 986 q 744 960 713 976 q 801 909 776 943 q 833 817 826 875 l 729 817 q 702 872 725 847 q 625 896 679 896 l 508 896 z "},"ª":{"ha":953,"x_min":89,"x_max":864,"o":"m 569 993 l 864 410 l 704 410 l 631 550 l 321 550 l 247 410 l 89 410 l 382 993 l 569 993 m 583 667 l 476 893 l 369 667 l 583 667 z "},"®":{"ha":1140,"x_min":89,"x_max":1051,"o":"m 571 1147 q 758 1124 671 1147 q 911 1056 846 1101 q 1014 941 976 1010 q 1051 779 1051 872 q 1014 617 1051 686 q 911 501 976 547 q 758 433 846 456 q 571 410 671 410 q 383 433 471 410 q 230 501 296 456 q 126 617 164 547 q 89 779 89 686 q 126 941 89 872 q 230 1056 164 1010 q 383 1124 296 1101 q 571 1147 471 1147 m 571 489 q 722 507 651 489 q 846 561 793 525 q 929 651 899 597 q 960 779 960 706 q 929 907 960 853 q 846 997 899 961 q 722 1050 793 1032 q 571 1068 651 1068 q 419 1050 490 1068 q 296 997 349 1032 q 213 907 243 961 q 182 779 182 853 q 213 651 182 706 q 296 561 243 597 q 419 507 349 525 q 571 489 490 489 m 822 851 q 806 783 822 808 q 769 742 789 757 q 717 717 746 724 l 843 574 l 718 574 l 610 706 l 424 706 l 424 574 l 325 574 l 325 989 l 644 989 q 711 982 679 989 q 768 959 743 975 q 808 917 793 943 q 822 851 822 890 m 646 783 q 705 803 690 783 q 719 847 719 824 q 705 892 719 872 q 646 913 690 913 l 424 913 l 424 783 l 646 783 z "},"°":{"ha":722,"x_min":89,"x_max":633,"o":"m 361 1147 q 467 1135 418 1147 q 553 1096 517 1122 q 612 1031 590 1069 q 633 939 633 992 q 612 847 633 886 q 553 781 590 807 q 467 742 517 756 q 361 729 418 729 q 256 742 306 729 q 169 781 206 756 q 110 847 132 807 q 89 939 89 886 q 110 1031 89 992 q 169 1096 132 1069 q 256 1135 206 1122 q 361 1147 306 1147 m 361 813 q 427 820 396 813 q 481 844 458 828 q 517 883 504 860 q 531 939 531 907 q 517 994 531 971 q 481 1033 504 1018 q 427 1056 458 1049 q 361 1064 396 1064 q 295 1056 326 1064 q 241 1033 264 1049 q 205 994 218 1018 q 192 939 192 971 q 205 883 192 907 q 241 844 218 860 q 295 820 264 828 q 361 813 326 813 z "},"º":{"ha":919,"x_min":89,"x_max":831,"o":"m 524 993 q 615 985 563 993 q 716 948 668 978 q 797 860 764 918 q 831 701 831 801 q 797 543 831 601 q 716 455 764 485 q 615 417 668 425 q 524 410 563 410 l 396 410 q 304 417 357 410 q 203 455 251 425 q 122 543 156 485 q 89 701 89 601 q 122 860 89 801 q 203 948 156 918 q 304 985 251 978 q 396 993 357 993 l 524 993 m 565 557 q 617 569 597 557 q 648 602 636 582 q 664 648 660 622 q 668 701 668 674 q 664 755 668 729 q 648 801 660 781 q 617 833 636 821 q 565 846 597 846 l 354 846 q 303 833 324 846 q 272 801 283 821 q 256 755 260 781 q 251 701 251 729 q 256 648 251 674 q 272 602 260 622 q 303 569 283 582 q 354 557 324 557 l 565 557 z "},"‘":{"ha":433,"x_min":89,"x_max":344,"o":"m 251 1143 l 344 1143 l 265 781 l 89 781 l 251 1143 z "},"’":{"ha":432,"x_min":89,"x_max":343,"o":"m 168 1143 l 343 1143 l 182 781 l 89 781 l 168 1143 z "},"‚":{"ha":433,"x_min":89,"x_max":344,"o":"m 168 189 l 344 189 l 182 -174 l 89 -174 l 168 189 z "},"“":{"ha":658,"x_min":89,"x_max":569,"o":"m 314 781 l 476 1143 l 569 1143 l 490 781 l 314 781 m 344 1143 l 265 781 l 89 781 l 250 1143 l 344 1143 z "},"”":{"ha":658,"x_min":89,"x_max":569,"o":"m 344 1143 l 182 781 l 89 781 l 168 1143 l 344 1143 m 393 1143 l 569 1143 l 408 781 l 315 781 l 393 1143 z "},"™":{"ha":1506,"x_min":89,"x_max":1417,"o":"m 1231 993 l 1417 993 l 1417 497 l 1299 497 l 1299 883 l 1088 497 l 974 497 l 763 883 l 763 497 l 644 497 l 644 993 l 831 993 l 1031 624 l 1231 993 m 89 993 l 588 993 l 588 882 l 394 882 l 394 497 l 276 497 l 276 882 l 89 882 l 89 993 z "},"„":{"ha":658,"x_min":89,"x_max":569,"o":"m 343 189 l 182 -174 l 89 -174 l 167 189 l 343 189 m 393 189 l 569 189 l 407 -174 l 314 -174 l 393 189 z "},"#":{"ha":1233,"x_min":89,"x_max":1144,"o":"m 949 613 l 921 381 l 1101 381 l 1081 253 l 906 253 l 876 1 l 732 1 l 763 253 l 414 253 l 385 1 l 240 1 l 269 253 l 89 253 l 111 381 l 285 381 l 313 613 l 131 613 l 153 740 l 326 740 l 357 993 l 500 993 l 471 740 l 819 740 l 849 993 l 993 993 l 963 740 l 1144 740 l 1122 613 l 949 613 m 804 613 l 456 613 l 429 381 l 776 381 l 804 613 z "},"$":{"ha":1142,"x_min":89,"x_max":1053,"o":"m 633 682 q 786 659 711 674 q 921 617 861 644 q 1017 543 981 589 q 1053 426 1053 497 q 1049 372 1053 401 q 1030 314 1044 343 q 989 258 1015 285 q 917 209 963 231 q 806 175 872 188 q 649 163 740 163 l 633 163 l 633 0 l 511 0 l 511 163 l 496 163 q 338 178 404 163 q 227 218 272 193 q 156 275 182 243 q 115 340 129 307 q 96 406 100 374 q 92 463 92 438 l 249 463 q 262 406 249 433 q 300 356 275 378 q 363 322 325 335 q 451 308 401 308 l 511 308 l 511 549 q 358 570 433 557 q 222 609 282 583 q 126 676 163 635 q 89 785 89 718 q 93 836 89 810 q 112 888 97 863 q 153 938 126 914 q 226 979 181 961 q 337 1008 271 997 q 494 1018 403 1018 l 511 1018 l 511 1181 l 633 1181 l 633 1018 l 647 1018 q 865 985 785 1018 q 987 906 946 953 q 1040 807 1028 858 q 1051 719 1051 756 l 893 719 q 843 833 893 794 q 717 872 793 872 l 633 872 l 633 682 m 247 788 q 268 747 247 763 q 324 722 289 732 q 408 705 360 711 q 511 693 457 699 l 511 872 l 383 872 q 334 868 358 872 q 290 854 310 864 q 259 828 271 844 q 247 788 247 813 m 742 308 q 792 312 765 308 q 842 326 819 315 q 881 358 865 338 q 896 414 896 379 q 875 465 896 444 q 819 499 854 486 q 735 522 783 513 q 633 536 688 531 l 633 308 l 742 308 z "},":":{"ha":385,"x_min":89,"x_max":296,"o":"m 193 861 q 266 831 236 861 q 296 758 296 801 q 266 685 296 715 q 193 654 236 654 q 119 685 150 654 q 89 758 89 715 q 119 831 89 801 q 193 861 150 861 m 193 207 q 266 177 236 207 q 296 104 296 147 q 266 31 296 61 q 193 1 236 1 q 119 31 150 1 q 89 104 89 61 q 119 177 89 147 q 193 207 150 207 z "},";":{"ha":476,"x_min":89,"x_max":388,"o":"m 239 654 q 165 685 196 654 q 135 758 135 715 q 165 831 135 801 q 239 861 196 861 q 312 831 282 861 q 342 758 342 801 q 312 685 342 715 q 239 654 282 654 m 179 189 l 388 189 l 203 -150 l 89 -150 l 179 189 z "},"¢":{"ha":1090,"x_min":89,"x_max":1001,"o":"m 606 689 l 606 263 l 658 263 q 751 278 715 263 q 808 319 788 294 q 839 373 829 343 q 854 432 849 403 l 1001 432 q 946 272 989 331 q 847 184 903 214 q 731 146 790 154 q 625 138 671 138 l 606 138 l 606 1 l 485 1 l 485 138 l 468 138 q 397 141 436 138 q 316 156 357 144 q 235 190 275 168 q 164 250 196 213 q 112 343 132 288 q 89 476 92 399 q 135 660 93 593 q 235 762 176 728 q 357 805 293 796 q 468 814 421 814 l 485 814 l 485 993 l 606 993 l 606 814 l 625 814 q 731 806 671 814 q 847 767 790 797 q 946 679 903 738 q 1001 521 989 621 l 854 521 q 839 578 849 549 q 808 633 829 608 q 751 673 788 657 q 658 689 715 689 l 606 689 m 485 689 l 453 689 q 354 672 396 689 q 286 626 313 656 q 247 559 260 597 q 235 476 235 521 q 247 393 235 432 q 286 325 260 354 q 354 279 313 296 q 453 263 396 263 l 485 263 l 485 689 z "},"£":{"ha":1399,"x_min":89,"x_max":1310,"o":"m 706 840 q 492 765 563 840 q 415 536 422 689 l 917 536 l 917 429 l 422 429 q 452 341 432 382 q 494 269 472 300 q 533 218 515 238 q 556 193 551 199 q 676 165 622 183 q 784 127 731 146 q 895 95 838 108 q 1025 82 953 82 q 1148 93 1096 82 q 1236 118 1200 104 q 1310 154 1279 133 l 1310 6 q 1238 -31 1281 -15 q 1143 -56 1200 -44 q 1006 -67 1086 -67 q 842 -45 914 -67 q 706 1 771 -24 q 576 48 642 26 q 431 69 511 69 q 292 55 349 69 q 200 22 236 40 q 131 -25 157 1 l 131 110 q 181 146 150 129 q 247 176 207 161 q 344 199 286 192 q 285 294 317 235 q 240 429 253 353 l 89 429 l 89 536 l 236 536 q 270 715 242 640 q 342 841 299 790 q 439 922 385 892 q 550 967 493 951 q 661 988 607 983 q 758 993 715 993 l 790 993 q 883 989 832 993 q 989 970 935 985 q 1096 929 1043 956 q 1192 858 1149 903 q 1267 747 1236 813 q 1310 588 1299 681 l 1128 588 q 1108 667 1122 624 q 1060 750 1093 711 q 969 815 1026 789 q 819 840 911 840 l 706 840 z "},"¥":{"ha":1254,"x_min":89,"x_max":1165,"o":"m 1165 993 l 750 435 l 1040 435 l 1040 328 l 710 328 l 710 247 l 1040 247 l 1040 140 l 710 140 l 710 1 l 544 1 l 544 140 l 213 140 l 213 247 l 544 247 l 544 328 l 213 328 l 213 435 l 504 435 l 89 993 l 288 993 l 626 526 l 967 993 l 1165 993 z "},"€":{"ha":1506,"x_min":89,"x_max":1417,"o":"m 681 840 q 496 791 567 840 q 396 651 425 742 l 1046 651 l 1046 544 l 375 544 q 373 522 374 533 q 372 497 372 510 q 373 472 372 485 q 375 449 374 460 l 1046 449 l 1046 342 l 396 342 q 496 202 425 251 q 681 153 567 153 l 940 153 q 1138 196 1065 153 q 1243 315 1210 239 l 1417 267 q 1322 124 1382 176 q 1192 44 1261 71 q 1055 9 1124 17 q 932 1 986 1 l 717 1 q 581 11 658 1 q 430 56 504 21 q 295 158 356 90 q 208 342 235 225 l 89 342 l 89 449 l 194 449 q 193 472 193 460 q 193 497 193 485 q 193 522 193 510 q 194 544 193 533 l 89 544 l 89 651 l 208 651 q 295 836 235 768 q 430 939 356 904 q 581 983 504 974 q 717 993 658 993 l 932 993 q 1055 985 986 993 q 1192 951 1124 978 q 1322 871 1261 924 q 1417 728 1382 818 l 1243 679 q 1138 799 1210 757 q 940 840 1065 840 l 681 840 z "},"!":{"ha":383,"x_min":89,"x_max":294,"o":"m 143 321 l 90 993 l 293 993 l 239 321 l 143 321 m 192 207 q 265 177 235 207 q 294 104 294 147 q 265 31 294 61 q 192 1 235 1 q 119 31 149 1 q 89 104 89 61 q 119 177 89 147 q 192 207 149 207 z "},"%":{"ha":2051,"x_min":89,"x_max":1963,"o":"m 1378 993 l 801 1 l 676 1 l 1251 993 l 1378 993 m 493 358 q 339 374 413 358 q 210 428 265 390 q 122 526 154 465 q 89 675 89 586 q 123 828 89 767 q 214 926 157 889 q 344 978 271 963 q 493 993 417 993 q 648 976 575 993 q 776 922 721 960 q 863 824 831 885 q 896 675 896 764 q 862 523 896 583 q 772 426 828 463 q 643 374 715 389 q 493 358 571 358 m 706 567 q 732 602 718 578 q 746 675 746 626 q 732 749 746 725 q 706 783 718 772 q 493 836 646 836 q 279 783 340 836 q 253 749 267 772 q 239 675 239 725 q 253 602 239 626 q 279 567 267 578 q 493 515 342 515 q 706 567 646 515 m 1963 318 q 1928 165 1963 226 q 1838 68 1894 104 q 1710 17 1782 32 q 1560 1 1638 1 q 1406 17 1479 1 q 1276 71 1332 33 q 1188 169 1221 108 q 1156 318 1156 229 q 1190 471 1156 410 q 1281 568 1224 532 q 1410 619 1338 604 q 1560 635 1483 635 q 1710 620 1638 635 q 1838 569 1782 606 q 1928 471 1894 532 q 1963 318 1963 410 m 1772 210 q 1799 245 1785 221 q 1813 318 1813 269 q 1790 404 1813 372 q 1731 453 1767 436 q 1649 474 1694 469 q 1560 478 1604 478 q 1431 465 1485 478 q 1346 426 1376 453 q 1319 392 1333 415 q 1306 318 1306 368 q 1319 245 1306 269 q 1346 210 1333 221 q 1560 158 1408 158 q 1772 210 1713 158 z "},"&":{"ha":1476,"x_min":89,"x_max":1388,"o":"m 1244 433 l 1244 243 q 1267 178 1244 207 q 1349 150 1290 150 l 1349 1 q 1183 24 1239 1 q 1104 100 1128 47 q 811 1 1013 1 l 415 1 q 291 17 350 1 q 187 65 232 32 q 115 152 142 99 q 89 283 89 206 q 118 401 89 346 q 210 497 147 457 q 118 593 147 538 q 89 711 89 649 q 115 842 89 789 q 187 929 142 896 q 291 978 232 963 q 415 993 350 993 l 1244 993 l 1244 844 l 414 844 q 294 810 333 844 q 254 718 254 775 q 290 620 254 653 q 389 588 326 588 l 1388 588 l 1388 433 l 1244 433 m 897 150 q 1033 196 986 150 q 1079 317 1079 242 l 1079 433 l 401 433 q 292 394 331 433 q 254 292 254 354 q 297 183 254 217 q 422 150 339 150 l 897 150 z "},"(":{"ha":638,"x_min":89,"x_max":549,"o":"m 89 497 q 113 736 89 633 q 190 907 136 839 q 333 1009 244 975 q 549 1043 421 1043 l 549 931 q 399 901 456 931 q 310 816 342 872 q 267 680 278 760 q 256 497 256 600 q 267 314 256 394 q 310 178 278 233 q 399 93 342 122 q 549 64 456 64 l 549 -49 q 333 -15 421 -49 q 190 88 244 19 q 113 258 136 156 q 89 497 89 361 z "},")":{"ha":638,"x_min":89,"x_max":549,"o":"m 89 1043 q 305 1009 217 1043 q 447 907 393 975 q 525 736 501 839 q 549 497 549 633 q 525 258 549 361 q 447 88 501 156 q 305 -15 393 19 q 89 -49 217 -49 l 89 64 q 240 93 182 64 q 329 178 297 122 q 372 314 361 233 q 383 497 383 394 q 372 680 383 600 q 329 816 361 760 q 240 901 297 872 q 89 931 182 931 l 89 1043 z "},"/":{"ha":894,"x_min":89,"x_max":806,"o":"m 665 993 l 806 993 l 229 1 l 89 1 l 665 993 z "},"<":{"ha":938,"x_min":89,"x_max":849,"o":"m 89 558 l 849 931 l 849 783 l 236 492 l 849 200 l 849 51 l 89 424 l 89 558 z "},">":{"ha":938,"x_min":89,"x_max":849,"o":"m 89 931 l 849 558 l 849 424 l 89 51 l 89 200 l 703 492 l 89 783 l 89 931 z "},"?":{"ha":1400,"x_min":89,"x_max":1311,"o":"m 919 993 q 1113 965 1038 993 q 1233 891 1189 936 q 1294 790 1276 846 q 1311 678 1311 733 q 1281 528 1311 590 q 1192 425 1250 465 q 1049 366 1133 385 q 860 347 965 347 l 325 347 l 325 500 l 938 500 q 1015 511 978 500 q 1081 544 1053 522 q 1127 600 1110 567 q 1144 678 1144 633 q 1135 733 1144 704 q 1103 785 1126 761 q 1040 825 1079 810 q 938 840 1000 840 l 89 840 l 89 993 l 919 993 m 406 207 q 478 177 449 207 q 508 104 508 147 q 478 31 508 61 q 406 1 449 1 q 333 31 363 1 q 303 104 303 61 q 333 177 303 147 q 406 207 363 207 z "},"[":{"ha":588,"x_min":89,"x_max":499,"o":"m 499 1043 l 499 903 l 256 903 l 256 92 l 499 92 l 499 -49 l 89 -49 l 89 1043 l 499 1043 z "},"\\":{"ha":646,"x_min":89,"x_max":557,"o":"m 215 993 l 557 1 l 431 1 l 89 993 l 215 993 z "},"]":{"ha":586,"x_min":89,"x_max":497,"o":"m 497 1043 l 497 -49 l 89 -49 l 89 92 l 332 92 l 332 903 l 89 903 l 89 1043 l 497 1043 z "},"{":{"ha":633,"x_min":89,"x_max":544,"o":"m 169 717 q 183 897 163 832 q 244 995 203 963 q 347 1035 286 1028 q 479 1043 407 1043 l 544 1043 l 544 931 q 404 919 453 931 q 335 878 356 907 q 315 803 315 850 q 319 686 315 756 q 299 549 325 600 q 204 497 274 497 q 299 446 274 497 q 319 308 325 394 q 315 191 315 238 q 335 116 315 144 q 404 76 356 88 q 544 64 453 64 l 544 -49 l 479 -49 q 347 -41 407 -49 q 244 -1 286 -33 q 183 97 203 32 q 169 278 163 163 q 172 344 172 314 q 163 397 171 375 q 138 433 156 419 q 89 446 121 446 l 89 549 q 138 561 121 549 q 163 597 156 574 q 172 650 171 619 q 169 717 172 681 z "},"|":{"ha":299,"x_min":89,"x_max":210,"o":"m 89 1088 l 210 1088 l 210 -93 l 89 -93 l 89 1088 z "},"}":{"ha":635,"x_min":89,"x_max":546,"o":"m 464 717 q 463 650 463 681 q 470 597 463 619 q 496 561 478 574 q 546 549 514 549 l 546 446 q 496 433 514 446 q 470 397 478 419 q 463 344 463 375 q 464 278 463 314 q 451 97 471 163 q 389 -1 431 32 q 288 -41 347 -33 q 156 -49 228 -49 l 89 -49 l 89 64 q 229 76 181 64 q 299 116 278 88 q 319 191 319 144 q 315 308 319 238 q 335 446 310 394 q 429 497 360 497 q 335 549 360 497 q 315 686 310 600 q 319 803 319 756 q 299 878 319 850 q 229 919 278 907 q 89 931 181 931 l 89 1043 l 156 1043 q 288 1035 228 1043 q 389 995 347 1028 q 451 897 431 963 q 464 717 471 832 z "},"Æ":{"ha":2353,"x_min":89,"x_max":2264,"o":"m 2264 993 l 2264 844 l 1351 844 l 1351 561 l 2264 561 l 2264 426 l 1351 426 l 1351 150 l 2264 150 l 2264 1 l 1185 1 l 1185 246 l 254 246 l 254 1 l 89 1 l 89 497 q 115 692 89 611 q 185 828 142 774 q 283 916 228 883 q 397 966 339 949 q 512 988 456 983 q 613 993 568 993 l 828 993 q 908 990 864 993 q 1000 976 953 986 q 1095 948 1047 967 q 1185 897 1143 929 l 1185 993 l 2264 993 m 1185 379 l 1185 574 q 1110 770 1178 700 q 911 840 1043 840 l 531 840 q 322 760 389 840 q 254 539 254 681 l 254 379 l 1185 379 z "},"æ":{"ha":2353,"x_min":89,"x_max":2264,"o":"m 1351 844 l 1351 561 l 2264 561 l 2264 426 l 1351 426 l 1351 150 l 2264 150 l 2264 1 l 1185 1 l 1185 246 l 254 246 l 254 1 l 89 1 l 89 497 q 115 692 89 611 q 185 828 142 774 q 283 916 228 883 q 397 966 339 949 q 512 988 456 983 q 613 993 568 993 l 828 993 q 908 990 864 993 q 1000 976 953 986 q 1095 948 1047 967 q 1185 897 1143 929 l 1185 993 l 2264 993 l 2264 844 l 1351 844 m 1185 379 l 1185 574 q 1110 770 1178 700 q 911 840 1043 840 l 531 840 q 322 760 389 840 q 254 539 254 681 l 254 379 l 1185 379 z "},"@":{"ha":1557,"x_min":86,"x_max":1468,"o":"m 1025 993 q 1229 958 1144 993 q 1367 867 1314 924 q 1444 740 1419 811 q 1467 592 1468 668 q 1440 445 1465 517 q 1369 317 1415 374 q 1260 226 1324 261 q 1118 192 1196 192 q 1014 222 1060 192 q 958 321 968 253 q 901 282 936 299 q 825 254 871 267 q 713 242 779 242 l 681 242 q 597 253 644 242 q 509 294 550 265 q 442 373 468 324 q 424 497 417 422 q 465 622 431 572 q 544 700 499 671 q 640 741 590 729 q 725 753 689 753 l 771 753 q 873 742 833 753 q 936 718 913 732 q 978 683 964 703 l 982 753 l 1107 753 l 1086 390 q 1095 340 1083 364 q 1147 317 1107 317 q 1242 356 1200 317 q 1309 456 1285 396 q 1335 585 1333 515 q 1310 715 1338 656 q 1224 815 1283 775 q 1063 854 1164 854 l 608 854 q 457 824 524 854 q 344 743 390 793 q 273 628 299 693 q 244 497 247 564 q 263 366 242 431 q 329 251 283 301 q 447 171 375 201 q 618 140 519 140 l 903 140 l 903 1 l 631 1 q 385 44 489 1 q 215 156 282 86 q 117 315 149 226 q 90 497 86 404 q 130 679 93 590 q 235 838 167 768 q 403 951 303 908 q 632 993 503 993 l 1025 993 m 960 497 q 946 563 963 538 q 902 604 929 589 q 842 625 875 619 q 778 631 808 631 l 729 631 q 670 622 700 631 q 616 597 640 614 q 576 551 592 579 q 561 482 561 522 q 575 419 561 443 q 612 383 589 396 q 664 367 635 371 q 724 363 693 363 l 769 363 q 820 367 789 363 q 882 387 851 372 q 935 428 913 401 q 960 497 957 454 z "},"Þ":{"ha":1440,"x_min":89,"x_max":1351,"o":"m 89 993 l 268 993 l 268 861 l 906 861 q 1001 858 950 861 q 1101 841 1051 854 q 1196 804 1150 828 q 1276 740 1242 781 q 1331 640 1310 699 q 1351 497 1351 581 q 1331 355 1351 414 q 1276 255 1310 296 q 1196 190 1242 214 q 1101 153 1150 167 q 1001 137 1051 140 q 906 133 950 133 l 268 133 l 268 1 l 89 1 l 89 993 m 965 299 q 1123 347 1074 299 q 1172 497 1172 394 q 1123 648 1172 600 q 965 696 1074 696 l 268 696 l 268 299 l 965 299 z "},"ß":{"ha":1440,"x_min":89,"x_max":1351,"o":"m 89 496 q 128 728 89 633 q 234 881 167 822 q 392 967 301 940 q 585 993 482 993 l 875 993 q 1001 978 942 993 q 1104 929 1060 963 q 1175 842 1149 896 q 1201 711 1201 789 q 1190 631 1201 671 q 1154 556 1178 592 q 1242 505 1206 535 q 1303 439 1279 475 q 1340 363 1328 403 q 1351 283 1351 324 q 1325 152 1351 206 q 1254 65 1299 99 q 1151 17 1210 32 q 1025 1 1092 1 l 469 1 l 469 164 l 1026 164 q 1133 196 1094 164 q 1172 292 1172 228 q 1134 387 1172 354 q 1033 419 1096 419 l 469 419 l 469 575 l 892 575 q 990 610 958 575 q 1022 696 1022 644 q 1015 747 1022 722 q 993 790 1008 771 q 954 819 978 808 q 897 831 931 831 l 539 831 q 425 806 475 831 q 340 741 375 782 q 287 647 306 700 q 268 535 268 593 l 268 -118 l 89 -118 l 89 496 z "},"þ":{"ha":1442,"x_min":89,"x_max":1353,"o":"m 89 993 l 269 993 l 269 861 l 907 861 q 1002 858 951 861 q 1102 841 1053 854 q 1197 804 1151 828 q 1277 740 1243 781 q 1332 640 1311 699 q 1353 497 1353 581 q 1332 355 1353 414 q 1277 255 1311 296 q 1197 190 1243 214 q 1102 153 1151 167 q 1002 137 1053 140 q 907 133 951 133 l 269 133 l 269 1 l 89 1 l 89 993 m 967 299 q 1124 347 1075 299 q 1172 497 1172 394 q 1124 648 1172 600 q 967 696 1075 696 l 269 696 l 269 299 l 967 299 z "},"Œ":{"ha":2357,"x_min":89,"x_max":2268,"o":"m 1190 101 q 1099 49 1147 68 q 1003 19 1051 29 q 910 5 956 8 q 828 1 865 1 l 613 1 q 512 6 568 1 q 397 28 456 11 q 283 78 339 46 q 185 166 228 111 q 115 302 142 221 q 89 497 89 383 q 115 692 89 611 q 185 828 142 774 q 283 916 228 883 q 397 966 339 949 q 512 988 456 983 q 613 993 568 993 l 828 993 q 910 990 865 993 q 1003 976 956 986 q 1099 946 1051 965 q 1190 893 1147 926 l 1190 993 l 2268 993 l 2268 844 l 1356 844 l 1356 561 l 2268 561 l 2268 426 l 1356 426 l 1356 150 l 2268 150 l 2268 1 l 1190 1 l 1190 101 m 268 497 q 282 374 268 435 q 334 263 296 313 q 440 183 372 214 q 615 153 507 153 l 824 153 q 999 183 932 153 q 1106 263 1067 214 q 1158 374 1144 313 q 1172 497 1172 435 q 1158 621 1172 560 q 1106 731 1144 682 q 999 810 1067 779 q 824 840 932 840 l 615 840 q 440 810 507 840 q 334 731 372 779 q 282 621 296 682 q 268 497 268 560 z "},"œ":{"ha":2357,"x_min":89,"x_max":2268,"o":"m 1190 101 q 1099 49 1147 68 q 1003 19 1051 29 q 910 5 956 8 q 828 1 865 1 l 613 1 q 512 6 568 1 q 397 28 456 11 q 283 78 339 46 q 185 166 228 111 q 115 302 142 221 q 89 497 89 383 q 115 692 89 611 q 185 828 142 774 q 283 916 228 883 q 397 966 339 949 q 512 988 456 983 q 613 993 568 993 l 828 993 q 910 990 865 993 q 1003 976 956 986 q 1099 946 1051 965 q 1190 893 1147 926 l 1190 993 l 2268 993 l 2268 844 l 1356 844 l 1356 561 l 2268 561 l 2268 426 l 1356 426 l 1356 150 l 2268 150 l 2268 1 l 1190 1 l 1190 101 m 268 497 q 282 374 268 435 q 334 263 296 313 q 440 183 372 214 q 615 153 507 153 l 824 153 q 999 183 932 153 q 1106 263 1067 214 q 1158 374 1144 313 q 1172 497 1172 435 q 1158 621 1172 560 q 1106 731 1144 682 q 999 810 1067 779 q 824 840 932 840 l 615 840 q 440 810 507 840 q 334 731 372 779 q 282 621 296 682 q 268 497 268 560 z "},"Ø":{"ha":1442,"x_min":89,"x_max":1353,"o":"m 368 38 q 263 91 314 57 q 174 180 213 125 q 113 313 136 235 q 89 497 89 390 q 115 692 89 611 q 185 828 142 774 q 283 916 228 883 q 397 966 339 949 q 512 988 456 983 q 613 993 568 993 l 829 993 q 921 989 871 993 l 968 1069 l 1108 1069 l 1047 964 q 1160 915 1106 947 q 1258 827 1215 882 q 1326 692 1300 772 q 1353 497 1353 611 q 1326 302 1353 383 q 1256 166 1300 221 q 1158 78 1213 111 q 1044 28 1103 46 q 930 6 986 11 q 829 1 874 1 l 613 1 q 556 3 586 1 q 492 8 525 4 l 443 -76 l 303 -76 l 368 38 m 835 840 l 825 840 l 617 840 q 441 810 508 840 q 335 731 374 779 q 283 621 297 682 q 269 497 269 560 q 277 402 269 450 q 305 312 285 354 q 360 235 325 269 q 451 179 396 200 l 835 840 m 576 154 q 596 153 586 153 q 617 153 606 153 l 825 153 q 1001 183 933 153 q 1106 263 1068 214 q 1158 374 1144 313 q 1172 497 1172 435 q 1163 598 1172 547 q 1131 692 1154 649 q 1068 771 1108 736 q 965 824 1028 806 l 576 154 z "},"ø":{"ha":1442,"x_min":89,"x_max":1353,"o":"m 368 38 q 263 91 314 57 q 174 180 213 125 q 113 313 136 235 q 89 497 89 390 q 115 692 89 611 q 185 828 142 774 q 283 916 228 883 q 397 966 339 949 q 512 988 456 983 q 613 993 568 993 l 829 993 q 921 989 871 993 l 968 1069 l 1108 1069 l 1047 964 q 1160 915 1106 947 q 1258 827 1215 882 q 1326 692 1300 772 q 1353 497 1353 611 q 1326 302 1353 383 q 1257 166 1300 221 q 1158 78 1214 111 q 1044 28 1103 46 q 930 6 986 11 q 829 1 874 1 l 613 1 q 556 3 586 1 q 492 8 525 4 l 442 -76 l 303 -76 l 368 38 m 835 840 l 617 840 q 441 810 508 840 q 335 731 374 779 q 283 621 297 682 q 269 497 269 560 q 277 402 269 450 q 305 312 285 354 q 360 235 325 269 q 451 179 396 200 l 835 840 m 576 154 q 596 153 586 153 q 617 153 606 153 l 825 153 q 1001 183 933 153 q 1106 263 1068 214 q 1158 374 1144 313 q 1172 497 1172 435 q 1163 598 1172 547 q 1131 692 1154 649 q 1067 771 1108 736 q 964 824 1026 806 l 576 154 z "},"·":{"ha":383,"x_min":89,"x_max":294,"o":"m 192 738 q 265 711 235 738 q 294 647 294 685 q 265 583 294 610 q 192 557 235 557 q 119 583 149 557 q 89 647 89 610 q 119 711 89 685 q 192 738 149 738 z "},"¡":{"ha":383,"x_min":89,"x_max":294,"o":"m 192 718 q 119 748 149 718 q 89 821 89 778 q 119 894 89 864 q 192 924 149 924 q 265 894 235 924 q 294 821 294 864 q 265 748 294 778 q 192 718 235 718 m 240 604 l 293 -68 l 90 -68 l 144 604 l 240 604 z "},"¿":{"ha":1400,"x_min":89,"x_max":1311,"o":"m 994 718 q 922 748 951 718 q 892 821 892 778 q 922 894 892 864 q 994 924 951 924 q 1067 894 1038 924 q 1097 821 1097 864 q 1067 748 1097 778 q 994 718 1038 718 m 481 -68 q 287 -40 363 -68 q 167 34 211 -11 q 106 135 124 79 q 89 247 89 192 q 119 397 89 335 q 208 500 150 460 q 351 559 267 540 q 540 578 435 578 l 1075 578 l 1075 425 l 463 425 q 385 414 422 425 q 319 381 347 403 q 273 325 290 358 q 256 247 256 292 q 265 192 256 221 q 297 140 274 164 q 360 100 321 115 q 463 85 400 85 l 1311 85 l 1311 -68 l 481 -68 z "},"À":{"ha":1496,"x_min":89,"x_max":1407,"o":"m 733 1061 l 424 1376 l 668 1376 l 860 1061 l 733 1061 m 638 993 l 857 993 l 1407 1 l 1210 1 l 1090 217 l 406 217 l 286 1 l 89 1 l 638 993 m 1014 354 l 747 835 l 482 354 l 1014 354 z "},"Á":{"ha":1496,"x_min":89,"x_max":1407,"o":"m 822 1058 l 696 1058 l 889 1374 l 1132 1374 l 822 1058 m 638 993 l 857 993 l 1407 1 l 1210 1 l 1090 217 l 406 217 l 286 1 l 89 1 l 638 993 m 1014 354 l 747 835 l 482 354 l 1014 354 z "},"Â":{"ha":1496,"x_min":89,"x_max":1407,"o":"m 1154 1061 l 974 1061 l 749 1319 l 524 1061 l 343 1061 l 665 1415 l 832 1415 l 1154 1061 m 638 993 l 857 993 l 1407 1 l 1210 1 l 1090 217 l 406 217 l 286 1 l 89 1 l 638 993 m 1014 354 l 747 835 l 482 354 l 1014 354 z "},"Ã":{"ha":1496,"x_min":89,"x_max":1407,"o":"m 942 1175 q 1019 1189 986 1175 q 1076 1218 1053 1203 q 1124 1261 1104 1238 l 1124 1147 q 1078 1104 1106 1124 q 1017 1075 1054 1089 q 929 1061 981 1061 q 826 1078 871 1061 q 739 1115 781 1094 q 656 1151 697 1135 q 564 1168 614 1168 q 476 1151 511 1168 q 417 1115 440 1135 q 372 1061 389 1092 l 372 1189 q 417 1236 389 1215 q 476 1269 440 1254 q 564 1283 511 1283 q 672 1267 626 1283 q 760 1229 718 1250 q 844 1192 801 1208 q 942 1175 886 1175 m 638 993 l 857 993 l 1407 1 l 1210 1 l 1090 217 l 406 217 l 286 1 l 89 1 l 638 993 m 1014 354 l 747 835 l 482 354 l 1014 354 z "},"Ä":{"ha":1496,"x_min":89,"x_max":1407,"o":"m 554 1061 q 508 1069 529 1061 q 470 1092 486 1078 q 445 1125 454 1106 q 436 1165 436 1144 q 471 1240 436 1210 q 554 1269 506 1269 q 639 1240 604 1269 q 674 1165 674 1210 q 639 1092 674 1122 q 554 1061 604 1061 m 857 1269 q 942 1240 907 1269 q 976 1165 976 1210 q 942 1092 976 1122 q 857 1061 907 1061 q 810 1069 832 1061 q 773 1092 789 1078 q 748 1125 757 1106 q 739 1165 739 1144 q 774 1240 739 1210 q 857 1269 808 1269 m 638 993 l 857 993 l 1407 1 l 1210 1 l 1090 217 l 406 217 l 286 1 l 89 1 l 638 993 m 1014 354 l 747 835 l 482 354 l 1014 354 z "},"Å":{"ha":1496,"x_min":89,"x_max":1407,"o":"m 749 1060 q 663 1075 703 1060 q 594 1116 624 1090 q 548 1177 565 1142 q 531 1251 531 1213 q 548 1326 531 1292 q 594 1387 565 1361 q 663 1428 624 1413 q 749 1443 703 1443 q 834 1428 794 1443 q 903 1387 874 1413 q 949 1326 932 1361 q 967 1251 967 1292 q 949 1177 967 1213 q 903 1116 932 1142 q 834 1075 874 1090 q 749 1060 794 1060 m 749 1375 q 681 1339 708 1375 q 654 1251 654 1303 q 681 1164 654 1200 q 749 1128 708 1128 q 815 1164 788 1128 q 843 1251 843 1200 q 815 1339 843 1303 q 749 1375 788 1375 m 638 993 l 857 993 l 1407 1 l 1210 1 l 1090 217 l 406 217 l 286 1 l 89 1 l 638 993 m 1014 354 l 747 835 l 482 354 l 1014 354 z "},"Ç":{"ha":1436,"x_min":89,"x_max":1347,"o":"m 576 840 q 344 749 419 840 q 268 497 268 657 q 344 245 268 338 q 576 153 419 153 l 836 153 q 973 170 915 153 q 1070 220 1031 188 q 1132 300 1110 253 q 1164 407 1154 347 l 1347 407 q 1305 248 1336 314 q 1230 137 1274 182 q 1133 65 1186 92 q 1026 24 1081 39 q 921 6 972 10 q 828 1 869 1 l 783 1 l 783 -96 l 863 -96 q 1016 -126 956 -96 q 1106 -203 1076 -157 q 1133 -301 1135 -249 q 1097 -400 1131 -354 q 1001 -476 1064 -446 q 844 -507 938 -507 q 720 -492 774 -507 q 629 -457 667 -476 q 554 -407 586 -435 l 617 -308 q 675 -339 643 -325 q 742 -360 703 -350 q 826 -369 781 -369 q 940 -343 901 -369 q 978 -284 978 -317 q 940 -225 978 -251 q 826 -199 901 -199 l 643 -199 l 643 1 l 613 1 q 512 6 568 1 q 397 28 456 11 q 283 78 339 46 q 185 166 228 111 q 115 302 142 221 q 89 497 89 383 q 115 692 89 611 q 185 828 142 774 q 283 916 228 883 q 397 966 339 949 q 512 988 456 983 q 613 993 568 993 l 828 993 q 921 989 869 993 q 1026 970 972 985 q 1133 929 1081 956 q 1230 858 1186 903 q 1305 747 1274 813 q 1347 588 1336 681 l 1164 588 q 1132 693 1154 646 q 1070 773 1110 740 q 973 823 1031 806 q 836 840 915 840 l 576 840 z "},"È":{"ha":1257,"x_min":89,"x_max":1168,"o":"m 721 1061 l 411 1376 l 656 1376 l 847 1061 l 721 1061 m 1168 993 l 1168 844 l 254 844 l 254 561 l 1168 561 l 1168 426 l 254 426 l 254 150 l 1168 150 l 1168 1 l 89 1 l 89 993 l 1168 993 z "},"É":{"ha":1257,"x_min":89,"x_max":1168,"o":"m 538 1058 l 411 1058 l 604 1374 l 847 1374 l 538 1058 m 1168 993 l 1168 844 l 254 844 l 254 561 l 1168 561 l 1168 426 l 254 426 l 254 150 l 1168 150 l 1168 1 l 89 1 l 89 993 l 1168 993 z "},"Ê":{"ha":1257,"x_min":89,"x_max":1168,"o":"m 1035 1061 l 854 1061 l 629 1319 l 404 1061 l 224 1061 l 546 1415 l 713 1415 l 1035 1061 m 1168 993 l 1168 844 l 254 844 l 254 561 l 1168 561 l 1168 426 l 254 426 l 254 150 l 1168 150 l 1168 1 l 89 1 l 89 993 l 1168 993 z "},"Ë":{"ha":1257,"x_min":89,"x_max":1168,"o":"m 435 1061 q 388 1069 410 1061 q 351 1092 367 1078 q 326 1125 335 1106 q 317 1165 317 1144 q 351 1240 317 1210 q 435 1269 386 1269 q 519 1240 485 1269 q 554 1165 554 1210 q 519 1092 554 1122 q 435 1061 485 1061 m 738 1269 q 822 1240 788 1269 q 857 1165 857 1210 q 822 1092 857 1122 q 738 1061 788 1061 q 691 1069 713 1061 q 653 1092 669 1078 q 628 1125 638 1106 q 619 1165 619 1144 q 654 1240 619 1210 q 738 1269 689 1269 m 1168 993 l 1168 844 l 254 844 l 254 561 l 1168 561 l 1168 426 l 254 426 l 254 150 l 1168 150 l 1168 1 l 89 1 l 89 993 l 1168 993 z "},"Ì":{"ha":343,"x_min":-182,"x_max":254,"o":"m 128 1061 l -182 1376 l 63 1376 l 254 1061 l 128 1061 m 89 993 l 254 993 l 254 1 l 89 1 l 89 993 z "},"Í":{"ha":343,"x_min":89,"x_max":525,"o":"m 215 1058 l 89 1058 l 282 1374 l 525 1374 l 215 1058 m 89 993 l 254 993 l 254 1 l 89 1 l 89 993 z "},"Î":{"ha":343,"x_min":-235,"x_max":576,"o":"m 576 1061 l 396 1061 l 171 1319 l -54 1061 l -235 1061 l 88 1415 l 254 1415 l 576 1061 m 89 993 l 254 993 l 254 1 l 89 1 l 89 993 z "},"Ï":{"ha":343,"x_min":-99,"x_max":442,"o":"m 19 1068 q -27 1076 -6 1068 q -65 1099 -49 1085 q -90 1132 -81 1113 q -99 1172 -99 1151 q -64 1247 -99 1217 q 19 1276 -29 1276 q 104 1247 69 1276 q 139 1172 139 1217 q 104 1099 139 1129 q 19 1068 69 1068 m 322 1276 q 407 1247 372 1276 q 442 1172 442 1217 q 407 1099 442 1129 q 322 1068 372 1068 q 276 1076 297 1068 q 238 1099 254 1085 q 213 1132 222 1113 q 204 1172 204 1151 q 239 1247 204 1217 q 322 1276 274 1276 m 89 993 l 254 993 l 254 1 l 89 1 l 89 993 z "},"Ð":{"ha":1442,"x_min":-58,"x_max":1353,"o":"m 829 993 q 930 988 874 993 q 1044 966 986 983 q 1158 916 1103 949 q 1256 828 1213 883 q 1326 692 1300 774 q 1353 497 1353 611 q 1326 302 1353 383 q 1256 166 1300 221 q 1158 78 1213 111 q 1044 28 1103 46 q 930 6 986 11 q 829 1 874 1 l 89 1 l 89 419 l -58 419 l -58 551 l 89 551 l 89 993 l 829 993 m 849 153 q 1094 240 1014 153 q 1174 497 1174 328 q 1094 753 1174 667 q 849 840 1014 840 l 256 840 l 256 551 l 483 551 l 483 419 l 256 419 l 256 153 l 849 153 z "},"Ñ":{"ha":1440,"x_min":89,"x_max":1351,"o":"m 914 1175 q 992 1189 958 1175 q 1049 1218 1025 1203 q 1096 1261 1076 1238 l 1096 1147 q 1050 1104 1078 1124 q 990 1075 1026 1089 q 901 1061 953 1061 q 798 1078 843 1061 q 711 1115 753 1094 q 628 1151 669 1135 q 536 1168 586 1168 q 448 1151 483 1168 q 389 1115 413 1135 q 344 1061 361 1092 l 344 1189 q 389 1236 361 1215 q 448 1269 413 1254 q 536 1283 483 1283 q 644 1267 599 1283 q 732 1229 690 1250 q 816 1192 774 1208 q 914 1175 858 1175 m 1186 993 l 1351 993 l 1351 1 l 1129 1 l 254 806 l 254 1 l 89 1 l 89 993 l 310 993 l 1186 189 l 1186 993 z "},"Ò":{"ha":1442,"x_min":89,"x_max":1353,"o":"m 719 1061 l 410 1376 l 654 1376 l 846 1061 l 719 1061 m 829 993 q 930 988 874 993 q 1044 966 986 983 q 1158 916 1103 949 q 1256 828 1213 883 q 1326 692 1300 774 q 1353 497 1353 611 q 1326 302 1353 383 q 1256 166 1300 221 q 1158 78 1213 111 q 1044 28 1103 46 q 930 6 986 11 q 829 1 874 1 l 613 1 q 512 6 568 1 q 397 28 456 11 q 284 78 339 46 q 185 166 229 111 q 115 302 142 221 q 89 497 89 383 q 115 692 89 611 q 185 828 142 774 q 284 916 229 883 q 397 966 339 949 q 512 988 456 983 q 613 993 568 993 l 829 993 m 825 153 q 1001 183 933 153 q 1106 263 1068 214 q 1158 374 1144 313 q 1172 497 1172 435 q 1158 621 1172 560 q 1106 731 1144 682 q 1001 810 1068 779 q 825 840 933 840 l 617 840 q 441 810 508 840 q 335 731 374 779 q 283 621 297 682 q 269 497 269 560 q 283 374 269 435 q 335 263 297 313 q 441 183 374 214 q 617 153 508 153 l 825 153 z "},"Ó":{"ha":1442,"x_min":89,"x_max":1353,"o":"m 758 1058 l 632 1058 l 825 1374 l 1068 1374 l 758 1058 m 829 993 q 930 988 874 993 q 1044 966 986 983 q 1158 916 1103 949 q 1256 828 1213 883 q 1326 692 1300 774 q 1353 497 1353 611 q 1326 302 1353 383 q 1256 166 1300 221 q 1158 78 1213 111 q 1044 28 1103 46 q 930 6 986 11 q 829 1 874 1 l 613 1 q 512 6 568 1 q 397 28 456 11 q 284 78 339 46 q 185 166 229 111 q 115 302 142 221 q 89 497 89 383 q 115 692 89 611 q 185 828 142 774 q 284 916 229 883 q 397 966 339 949 q 512 988 456 983 q 613 993 568 993 l 829 993 m 825 153 q 1001 183 933 153 q 1106 263 1068 214 q 1158 374 1144 313 q 1172 497 1172 435 q 1158 621 1172 560 q 1106 731 1144 682 q 1001 810 1068 779 q 825 840 933 840 l 617 840 q 441 810 508 840 q 335 731 374 779 q 283 621 297 682 q 269 497 269 560 q 283 374 269 435 q 335 263 297 313 q 441 183 374 214 q 617 153 508 153 l 825 153 z "},"Ô":{"ha":1442,"x_min":89,"x_max":1353,"o":"m 1126 1061 l 946 1061 l 721 1319 l 496 1061 l 315 1061 l 638 1415 l 804 1415 l 1126 1061 m 829 993 q 930 988 874 993 q 1044 966 986 983 q 1158 916 1103 949 q 1256 828 1213 883 q 1326 692 1300 774 q 1353 497 1353 611 q 1326 302 1353 383 q 1256 166 1300 221 q 1158 78 1213 111 q 1044 28 1103 46 q 930 6 986 11 q 829 1 874 1 l 613 1 q 512 6 568 1 q 397 28 456 11 q 284 78 339 46 q 185 166 229 111 q 115 302 142 221 q 89 497 89 383 q 115 692 89 611 q 185 828 142 774 q 284 916 229 883 q 397 966 339 949 q 512 988 456 983 q 613 993 568 993 l 829 993 m 825 153 q 1001 183 933 153 q 1106 263 1068 214 q 1158 374 1144 313 q 1172 497 1172 435 q 1158 621 1172 560 q 1106 731 1144 682 q 1001 810 1068 779 q 825 840 933 840 l 617 840 q 441 810 508 840 q 335 731 374 779 q 283 621 297 682 q 269 497 269 560 q 283 374 269 435 q 335 263 297 313 q 441 183 374 214 q 617 153 508 153 l 825 153 z "},"Õ":{"ha":1442,"x_min":89,"x_max":1353,"o":"m 915 1175 q 993 1189 960 1175 q 1050 1218 1026 1203 q 1097 1261 1078 1238 l 1097 1147 q 1051 1104 1079 1124 q 991 1075 1028 1089 q 903 1061 954 1061 q 799 1078 844 1061 q 713 1115 754 1094 q 629 1151 671 1135 q 538 1168 588 1168 q 449 1151 485 1168 q 390 1115 414 1135 q 346 1061 363 1092 l 346 1189 q 390 1236 363 1215 q 449 1269 414 1254 q 538 1283 485 1283 q 646 1267 600 1283 q 733 1229 692 1250 q 817 1192 775 1208 q 915 1175 860 1175 m 829 993 q 930 988 874 993 q 1044 966 986 983 q 1158 916 1103 949 q 1256 828 1213 883 q 1326 692 1300 774 q 1353 497 1353 611 q 1326 302 1353 383 q 1256 166 1300 221 q 1158 78 1213 111 q 1044 28 1103 46 q 930 6 986 11 q 829 1 874 1 l 613 1 q 512 6 568 1 q 397 28 456 11 q 284 78 339 46 q 185 166 229 111 q 115 302 142 221 q 89 497 89 383 q 115 692 89 611 q 185 828 142 774 q 284 916 229 883 q 397 966 339 949 q 512 988 456 983 q 613 993 568 993 l 829 993 m 825 153 q 1001 183 933 153 q 1106 263 1068 214 q 1158 374 1144 313 q 1172 497 1172 435 q 1158 621 1172 560 q 1106 731 1144 682 q 1001 810 1068 779 q 825 840 933 840 l 617 840 q 441 810 508 840 q 335 731 374 779 q 283 621 297 682 q 269 497 269 560 q 283 374 269 435 q 335 263 297 313 q 441 183 374 214 q 617 153 508 153 l 825 153 z "},"Ö":{"ha":1442,"x_min":89,"x_max":1353,"o":"m 528 1061 q 481 1069 503 1061 q 444 1092 460 1078 q 419 1125 428 1106 q 410 1165 410 1144 q 444 1240 410 1210 q 528 1269 479 1269 q 613 1240 578 1269 q 647 1165 647 1210 q 613 1092 647 1122 q 528 1061 578 1061 m 831 1269 q 915 1240 881 1269 q 950 1165 950 1210 q 915 1092 950 1122 q 831 1061 881 1061 q 784 1069 806 1061 q 747 1092 763 1078 q 722 1125 731 1106 q 713 1165 713 1144 q 747 1240 713 1210 q 831 1269 782 1269 m 829 993 q 930 988 874 993 q 1044 966 986 983 q 1158 916 1103 949 q 1256 828 1213 883 q 1326 692 1300 774 q 1353 497 1353 611 q 1326 302 1353 383 q 1256 166 1300 221 q 1158 78 1213 111 q 1044 28 1103 46 q 930 6 986 11 q 829 1 874 1 l 613 1 q 512 6 568 1 q 397 28 456 11 q 284 78 339 46 q 185 166 229 111 q 115 302 142 221 q 89 497 89 383 q 115 692 89 611 q 185 828 142 774 q 284 916 229 883 q 397 966 339 949 q 512 988 456 983 q 613 993 568 993 l 829 993 m 825 153 q 1001 183 933 153 q 1106 263 1068 214 q 1158 374 1144 313 q 1172 497 1172 435 q 1158 621 1172 560 q 1106 731 1144 682 q 1001 810 1068 779 q 825 840 933 840 l 617 840 q 441 810 508 840 q 335 731 374 779 q 283 621 297 682 q 269 497 269 560 q 283 374 269 435 q 335 263 297 313 q 441 183 374 214 q 617 153 508 153 l 825 153 z "},"Ù":{"ha":1442,"x_min":89,"x_max":1353,"o":"m 813 1061 l 503 1376 l 747 1376 l 939 1061 l 813 1061 m 1186 993 l 1353 993 l 1353 497 q 1326 302 1353 383 q 1256 166 1300 221 q 1158 78 1213 111 q 1044 28 1103 46 q 930 6 986 11 q 829 1 874 1 l 613 1 q 512 6 568 1 q 397 28 456 11 q 284 78 339 46 q 185 166 229 111 q 115 302 142 221 q 89 497 89 383 l 89 993 l 254 993 l 254 497 q 282 333 254 399 q 357 226 310 267 q 467 169 404 186 q 600 153 529 153 l 842 153 q 975 169 913 153 q 1084 226 1038 186 q 1158 333 1131 267 q 1186 497 1186 399 l 1186 993 z "},"Ú":{"ha":1442,"x_min":89,"x_max":1353,"o":"m 629 1058 l 503 1058 l 696 1374 l 939 1374 l 629 1058 m 1186 993 l 1353 993 l 1353 497 q 1326 302 1353 383 q 1256 166 1300 221 q 1158 78 1213 111 q 1044 28 1103 46 q 930 6 986 11 q 829 1 874 1 l 613 1 q 512 6 568 1 q 397 28 456 11 q 284 78 339 46 q 185 166 229 111 q 115 302 142 221 q 89 497 89 383 l 89 993 l 254 993 l 254 497 q 282 333 254 399 q 357 226 310 267 q 467 169 404 186 q 600 153 529 153 l 842 153 q 975 169 913 153 q 1084 226 1038 186 q 1158 333 1131 267 q 1186 497 1186 399 l 1186 993 z "},"Û":{"ha":1442,"x_min":89,"x_max":1353,"o":"m 1126 1061 l 946 1061 l 721 1319 l 496 1061 l 315 1061 l 638 1415 l 804 1415 l 1126 1061 m 1186 993 l 1353 993 l 1353 497 q 1326 302 1353 383 q 1256 166 1300 221 q 1158 78 1213 111 q 1044 28 1103 46 q 930 6 986 11 q 829 1 874 1 l 613 1 q 512 6 568 1 q 397 28 456 11 q 284 78 339 46 q 185 166 229 111 q 115 302 142 221 q 89 497 89 383 l 89 993 l 254 993 l 254 497 q 282 333 254 399 q 357 226 310 267 q 467 169 404 186 q 600 153 529 153 l 842 153 q 975 169 913 153 q 1084 226 1038 186 q 1158 333 1131 267 q 1186 497 1186 399 l 1186 993 z "},"Ü":{"ha":1442,"x_min":89,"x_max":1353,"o":"m 528 1061 q 481 1069 503 1061 q 444 1092 460 1078 q 419 1125 428 1106 q 410 1165 410 1144 q 444 1240 410 1210 q 528 1269 479 1269 q 613 1240 578 1269 q 647 1165 647 1210 q 613 1092 647 1122 q 528 1061 578 1061 m 831 1269 q 915 1240 881 1269 q 950 1165 950 1210 q 915 1092 950 1122 q 831 1061 881 1061 q 784 1069 806 1061 q 747 1092 763 1078 q 722 1125 731 1106 q 713 1165 713 1144 q 747 1240 713 1210 q 831 1269 782 1269 m 1186 993 l 1353 993 l 1353 497 q 1326 302 1353 383 q 1256 166 1300 221 q 1158 78 1213 111 q 1044 28 1103 46 q 930 6 986 11 q 829 1 874 1 l 613 1 q 512 6 568 1 q 397 28 456 11 q 284 78 339 46 q 185 166 229 111 q 115 302 142 221 q 89 497 89 383 l 89 993 l 254 993 l 254 497 q 282 333 254 399 q 357 226 310 267 q 467 169 404 186 q 600 153 529 153 l 842 153 q 975 169 913 153 q 1084 226 1038 186 q 1158 333 1131 267 q 1186 497 1186 399 l 1186 993 z "},"Ý":{"ha":1447,"x_min":89,"x_max":1358,"o":"m 632 1058 l 506 1058 l 699 1374 l 942 1374 l 632 1058 m 1358 990 l 807 354 l 807 0 l 640 0 l 640 354 l 89 990 l 314 990 l 724 508 l 1133 990 l 1358 990 z "},"à":{"ha":1442,"x_min":89,"x_max":1353,"o":"m 707 1064 l 397 1379 l 642 1379 l 833 1064 l 707 1064 m 829 993 q 930 988 874 993 q 1044 966 986 983 q 1158 916 1103 949 q 1256 828 1213 883 q 1326 692 1300 774 q 1353 497 1353 611 l 1353 1 l 1186 1 l 1186 246 l 256 246 l 256 1 l 89 1 l 89 497 q 115 692 89 611 q 185 828 142 774 q 284 916 229 883 q 397 966 339 949 q 512 988 456 983 q 613 993 568 993 l 829 993 m 1186 379 l 1186 539 q 1119 760 1186 681 q 911 840 1053 840 l 531 840 q 322 760 389 840 q 256 539 256 681 l 256 379 l 1186 379 z "},"á":{"ha":1442,"x_min":89,"x_max":1353,"o":"m 807 1056 l 681 1056 l 874 1371 l 1117 1371 l 807 1056 m 829 993 q 930 988 874 993 q 1044 966 986 983 q 1158 916 1103 949 q 1256 828 1213 883 q 1326 692 1300 774 q 1353 497 1353 611 l 1353 1 l 1186 1 l 1186 246 l 256 246 l 256 1 l 89 1 l 89 497 q 115 692 89 611 q 185 828 142 774 q 284 916 229 883 q 397 966 339 949 q 512 988 456 983 q 613 993 568 993 l 829 993 m 1186 379 l 1186 539 q 1119 760 1186 681 q 911 840 1053 840 l 531 840 q 322 760 389 840 q 256 539 256 681 l 256 379 l 1186 379 z "},"â":{"ha":1442,"x_min":89,"x_max":1353,"o":"m 1126 1056 l 946 1056 l 721 1314 l 496 1056 l 315 1056 l 638 1410 l 804 1410 l 1126 1056 m 829 993 q 930 988 874 993 q 1044 966 986 983 q 1158 916 1103 949 q 1256 828 1213 883 q 1326 692 1300 774 q 1353 497 1353 611 l 1353 1 l 1186 1 l 1186 246 l 256 246 l 256 1 l 89 1 l 89 497 q 115 692 89 611 q 185 828 142 774 q 284 916 229 883 q 397 966 339 949 q 512 988 456 983 q 613 993 568 993 l 829 993 m 1186 379 l 1186 539 q 1119 760 1186 681 q 911 840 1053 840 l 531 840 q 322 760 389 840 q 256 539 256 681 l 256 379 l 1186 379 z "},"ã":{"ha":1442,"x_min":89,"x_max":1353,"o":"m 914 1167 q 992 1181 958 1167 q 1049 1210 1025 1194 q 1096 1253 1076 1229 l 1096 1139 q 1050 1096 1078 1115 q 990 1067 1026 1081 q 901 1053 953 1053 q 798 1069 843 1053 q 711 1106 753 1086 q 628 1143 669 1126 q 536 1160 586 1160 q 448 1143 483 1160 q 389 1107 413 1126 q 344 1053 361 1083 l 344 1181 q 389 1228 361 1207 q 448 1260 413 1246 q 536 1275 483 1275 q 644 1258 599 1275 q 732 1221 690 1242 q 816 1183 774 1200 q 914 1167 858 1167 m 829 993 q 930 988 874 993 q 1044 966 986 983 q 1158 916 1103 949 q 1256 828 1213 883 q 1326 692 1300 774 q 1353 497 1353 611 l 1353 1 l 1186 1 l 1186 246 l 256 246 l 256 1 l 89 1 l 89 497 q 115 692 89 611 q 185 828 142 774 q 284 916 229 883 q 397 966 339 949 q 512 988 456 983 q 613 993 568 993 l 829 993 m 1186 379 l 1186 539 q 1119 760 1186 681 q 911 840 1053 840 l 531 840 q 322 760 389 840 q 256 539 256 681 l 256 379 l 1186 379 z "},"ä":{"ha":1442,"x_min":89,"x_max":1353,"o":"m 526 1057 q 480 1065 501 1057 q 442 1088 458 1074 q 417 1121 426 1101 q 408 1161 408 1140 q 443 1235 408 1206 q 526 1265 478 1265 q 611 1235 576 1265 q 646 1161 646 1206 q 611 1088 646 1118 q 526 1057 576 1057 m 829 1265 q 914 1235 879 1265 q 949 1161 949 1206 q 914 1088 949 1118 q 829 1057 879 1057 q 783 1065 804 1057 q 745 1088 761 1074 q 720 1121 729 1101 q 711 1161 711 1140 q 746 1235 711 1206 q 829 1265 781 1265 m 829 993 q 930 988 874 993 q 1044 966 986 983 q 1158 916 1103 949 q 1256 828 1213 883 q 1326 692 1300 774 q 1353 497 1353 611 l 1353 1 l 1186 1 l 1186 246 l 256 246 l 256 1 l 89 1 l 89 497 q 115 692 89 611 q 185 828 142 774 q 284 916 229 883 q 397 966 339 949 q 512 988 456 983 q 613 993 568 993 l 829 993 m 1186 379 l 1186 539 q 1119 760 1186 681 q 911 840 1053 840 l 531 840 q 322 760 389 840 q 256 539 256 681 l 256 379 l 1186 379 z "},"å":{"ha":1442,"x_min":89,"x_max":1353,"o":"m 721 1060 q 635 1075 675 1060 q 567 1116 596 1090 q 520 1177 538 1142 q 503 1251 503 1213 q 520 1326 503 1292 q 567 1387 538 1361 q 635 1428 596 1413 q 721 1443 675 1443 q 806 1428 767 1443 q 875 1387 846 1413 q 922 1326 904 1361 q 939 1251 939 1292 q 922 1177 939 1213 q 875 1116 904 1142 q 806 1075 846 1090 q 721 1060 767 1060 m 721 1375 q 653 1339 681 1375 q 626 1251 626 1303 q 653 1164 626 1200 q 721 1128 681 1128 q 788 1164 760 1128 q 815 1251 815 1200 q 788 1339 815 1303 q 721 1375 760 1375 m 829 993 q 930 988 874 993 q 1044 966 986 983 q 1158 916 1103 949 q 1256 828 1213 883 q 1326 692 1300 774 q 1353 497 1353 611 l 1353 1 l 1186 1 l 1186 246 l 256 246 l 256 1 l 89 1 l 89 497 q 115 692 89 611 q 185 828 142 774 q 284 916 229 883 q 397 966 339 949 q 512 988 456 983 q 613 993 568 993 l 829 993 m 1186 379 l 1186 539 q 1119 760 1186 681 q 911 840 1053 840 l 531 840 q 322 760 389 840 q 256 539 256 681 l 256 379 l 1186 379 z "},"ç":{"ha":1436,"x_min":89,"x_max":1347,"o":"m 576 840 q 344 749 419 840 q 268 497 268 657 q 344 245 268 338 q 576 153 419 153 l 836 153 q 973 170 915 153 q 1070 220 1031 188 q 1132 300 1110 253 q 1164 407 1154 347 l 1347 407 q 1305 248 1336 314 q 1230 137 1274 182 q 1133 65 1186 92 q 1026 24 1081 39 q 921 6 972 10 q 828 1 869 1 l 749 1 l 749 -108 l 828 -108 q 981 -139 921 -108 q 1071 -215 1042 -169 q 1098 -314 1100 -261 q 1063 -412 1096 -367 q 966 -489 1029 -458 q 810 -519 903 -519 q 685 -504 739 -519 q 594 -469 632 -489 q 519 -419 551 -447 l 582 -321 q 640 -351 608 -337 q 707 -372 668 -362 q 792 -382 746 -382 q 905 -356 867 -382 q 943 -297 943 -329 q 905 -237 943 -264 q 792 -211 867 -211 l 608 -211 l 608 1 q 508 6 564 1 q 394 28 451 11 q 281 78 336 46 q 183 167 226 111 q 115 303 140 222 q 89 497 89 383 q 115 692 89 611 q 185 828 142 774 q 283 916 228 883 q 397 966 339 949 q 512 988 456 983 q 613 993 568 993 l 828 993 q 921 989 869 993 q 1026 970 972 985 q 1133 929 1081 956 q 1230 858 1186 903 q 1305 747 1274 813 q 1347 588 1336 681 l 1164 588 q 1132 693 1154 646 q 1070 773 1110 740 q 973 823 1031 806 q 836 840 915 840 l 576 840 z "},"è":{"ha":1439,"x_min":89,"x_max":1350,"o":"m 726 1057 l 417 1372 l 661 1372 l 853 1057 l 726 1057 m 903 993 q 1076 965 994 993 q 1218 877 1157 936 q 1315 728 1279 818 q 1350 514 1350 638 q 1350 472 1350 490 q 1349 438 1350 453 q 1347 406 1349 419 l 275 406 q 313 290 286 338 q 378 211 339 242 q 468 167 418 181 q 576 153 518 153 l 911 153 q 1027 169 981 153 q 1103 213 1074 186 q 1147 271 1132 239 q 1165 333 1161 303 l 1347 333 q 1304 208 1336 261 q 1228 119 1272 156 q 1132 59 1185 82 q 1026 23 1079 36 q 921 6 972 10 q 828 1 869 1 l 613 1 q 512 6 568 1 q 397 28 456 11 q 283 78 339 46 q 185 166 228 111 q 115 302 142 221 q 89 497 89 383 q 115 692 89 611 q 185 828 142 774 q 283 916 228 883 q 397 966 339 949 q 512 988 456 983 q 613 993 568 993 l 903 993 m 547 840 q 351 762 422 840 q 269 536 279 683 l 1164 536 q 1147 662 1163 606 q 1097 758 1131 718 q 1010 819 1064 797 q 879 840 957 840 l 547 840 z "},"é":{"ha":1439,"x_min":89,"x_max":1350,"o":"m 739 1060 l 613 1060 l 806 1375 l 1049 1375 l 739 1060 m 903 993 q 1076 965 994 993 q 1218 877 1157 936 q 1315 728 1279 818 q 1350 514 1350 638 q 1350 472 1350 490 q 1349 438 1350 453 q 1347 406 1349 419 l 275 406 q 313 290 286 338 q 378 211 339 242 q 468 167 418 181 q 576 153 518 153 l 911 153 q 1027 169 981 153 q 1103 213 1074 186 q 1147 271 1132 239 q 1165 333 1161 303 l 1347 333 q 1304 208 1336 261 q 1228 119 1272 156 q 1132 59 1185 82 q 1026 23 1079 36 q 921 6 972 10 q 828 1 869 1 l 613 1 q 512 6 568 1 q 397 28 456 11 q 283 78 339 46 q 185 166 228 111 q 115 302 142 221 q 89 497 89 383 q 115 692 89 611 q 185 828 142 774 q 283 916 228 883 q 397 966 339 949 q 512 988 456 983 q 613 993 568 993 l 903 993 m 547 840 q 351 762 422 840 q 269 536 279 683 l 1164 536 q 1147 662 1163 606 q 1097 758 1131 718 q 1010 819 1064 797 q 879 840 957 840 l 547 840 z "},"ê":{"ha":1439,"x_min":89,"x_max":1350,"o":"m 1125 1054 l 944 1054 l 719 1313 l 494 1054 l 314 1054 l 636 1408 l 803 1408 l 1125 1054 m 903 993 q 1076 965 994 993 q 1218 877 1157 936 q 1315 728 1279 818 q 1350 514 1350 638 q 1350 472 1350 490 q 1349 438 1350 453 q 1347 406 1349 419 l 275 406 q 313 290 286 338 q 378 211 339 242 q 468 167 418 181 q 576 153 518 153 l 911 153 q 1027 169 981 153 q 1103 213 1074 186 q 1147 271 1132 239 q 1165 333 1161 303 l 1347 333 q 1304 208 1336 261 q 1228 119 1272 156 q 1132 59 1185 82 q 1026 23 1079 36 q 921 6 972 10 q 828 1 869 1 l 613 1 q 512 6 568 1 q 397 28 456 11 q 283 78 339 46 q 185 166 228 111 q 115 302 142 221 q 89 497 89 383 q 115 692 89 611 q 185 828 142 774 q 283 916 228 883 q 397 966 339 949 q 512 988 456 983 q 613 993 568 993 l 903 993 m 547 840 q 351 762 422 840 q 269 536 279 683 l 1164 536 q 1147 662 1163 606 q 1097 758 1131 718 q 1010 819 1064 797 q 879 840 957 840 l 547 840 z "},"ë":{"ha":1439,"x_min":89,"x_max":1350,"o":"m 525 1064 q 478 1072 500 1064 q 441 1094 457 1081 q 416 1128 425 1108 q 407 1168 407 1147 q 442 1242 407 1213 q 525 1272 476 1272 q 610 1242 575 1272 q 644 1168 644 1213 q 610 1094 644 1125 q 525 1064 575 1064 m 828 1272 q 913 1242 878 1272 q 947 1168 947 1213 q 913 1094 947 1125 q 828 1064 878 1064 q 781 1072 803 1064 q 744 1094 760 1081 q 719 1128 728 1108 q 710 1168 710 1147 q 744 1242 710 1213 q 828 1272 779 1272 m 903 993 q 1076 965 994 993 q 1218 877 1157 936 q 1315 728 1279 818 q 1350 514 1350 638 q 1350 472 1350 490 q 1349 438 1350 453 q 1347 406 1349 419 l 275 406 q 313 290 286 338 q 378 211 339 242 q 468 167 418 181 q 576 153 518 153 l 911 153 q 1027 169 981 153 q 1103 213 1074 186 q 1147 271 1132 239 q 1165 333 1161 303 l 1347 333 q 1304 208 1336 261 q 1228 119 1272 156 q 1132 59 1185 82 q 1026 23 1079 36 q 921 6 972 10 q 828 1 869 1 l 613 1 q 512 6 568 1 q 397 28 456 11 q 283 78 339 46 q 185 166 228 111 q 115 302 142 221 q 89 497 89 383 q 115 692 89 611 q 185 828 142 774 q 283 916 228 883 q 397 966 339 949 q 512 988 456 983 q 613 993 568 993 l 903 993 m 547 840 q 351 762 422 840 q 269 536 279 683 l 1164 536 q 1147 662 1163 606 q 1097 758 1131 718 q 1010 819 1064 797 q 879 840 957 840 l 547 840 z "},"ì":{"ha":888,"x_min":89,"x_max":799,"o":"m 399 1067 l 89 1382 l 333 1382 l 525 1067 l 399 1067 m 89 993 l 799 993 l 799 868 l 529 868 l 529 125 l 799 125 l 799 1 l 89 1 l 89 125 l 361 125 l 361 868 l 89 868 l 89 993 z "},"í":{"ha":888,"x_min":89,"x_max":799,"o":"m 463 1064 l 336 1064 l 529 1379 l 772 1379 l 463 1064 m 89 993 l 799 993 l 799 868 l 529 868 l 529 125 l 799 125 l 799 1 l 89 1 l 89 125 l 361 125 l 361 868 l 89 868 l 89 993 z "},"î":{"ha":888,"x_min":26,"x_max":838,"o":"m 838 1051 l 657 1051 l 432 1310 l 207 1051 l 26 1051 l 349 1406 l 515 1406 l 838 1051 m 89 993 l 799 993 l 799 868 l 529 868 l 529 125 l 799 125 l 799 1 l 89 1 l 89 125 l 361 125 l 361 868 l 89 868 l 89 993 z "},"ï":{"ha":888,"x_min":89,"x_max":799,"o":"m 250 1058 q 203 1067 225 1058 q 166 1089 182 1075 q 141 1122 150 1103 q 132 1163 132 1142 q 167 1237 132 1207 q 250 1267 201 1267 q 335 1237 300 1267 q 369 1163 369 1207 q 335 1089 369 1119 q 250 1058 300 1058 m 553 1267 q 638 1237 603 1267 q 672 1163 672 1207 q 638 1089 672 1119 q 553 1058 603 1058 q 506 1067 528 1058 q 469 1089 485 1075 q 444 1122 453 1103 q 435 1163 435 1142 q 469 1237 435 1207 q 553 1267 504 1267 m 89 993 l 799 993 l 799 868 l 529 868 l 529 125 l 799 125 l 799 1 l 89 1 l 89 125 l 361 125 l 361 868 l 89 868 l 89 993 z "},"ñ":{"ha":1442,"x_min":89,"x_max":1353,"o":"m 914 1165 q 992 1179 958 1165 q 1049 1208 1025 1193 q 1096 1251 1076 1228 l 1096 1138 q 1050 1094 1078 1114 q 990 1065 1026 1079 q 901 1051 953 1051 q 798 1068 843 1051 q 711 1105 753 1085 q 628 1142 669 1125 q 536 1158 586 1158 q 448 1142 483 1158 q 389 1106 413 1125 q 344 1051 361 1082 l 344 1179 q 389 1226 361 1206 q 448 1259 413 1244 q 536 1274 483 1274 q 644 1257 599 1274 q 732 1219 690 1240 q 816 1182 774 1199 q 914 1165 858 1165 m 1172 0 l 1172 501 q 1142 676 1172 607 q 1057 787 1111 746 q 928 844 1003 828 q 765 861 853 861 q 567 824 660 861 q 406 731 475 788 q 296 607 336 675 q 256 478 256 539 l 256 0 l 89 0 l 89 990 l 256 990 l 256 754 q 362 863 300 817 q 494 941 424 910 q 640 988 565 972 q 783 1004 715 1004 q 999 983 896 1004 q 1180 908 1101 963 q 1306 760 1258 854 q 1353 517 1353 665 l 1353 0 l 1172 0 z "},"ò":{"ha":1442,"x_min":89,"x_max":1353,"o":"m 718 1061 l 408 1376 l 653 1376 l 844 1061 l 718 1061 m 829 993 q 930 988 874 993 q 1044 966 986 983 q 1158 916 1103 949 q 1256 828 1213 883 q 1326 692 1300 774 q 1353 497 1353 611 q 1326 302 1353 383 q 1256 166 1300 221 q 1158 78 1213 111 q 1044 28 1103 46 q 930 6 986 11 q 829 1 874 1 l 613 1 q 512 6 568 1 q 397 28 456 11 q 284 78 339 46 q 185 166 229 111 q 115 302 142 221 q 89 497 89 383 q 115 692 89 611 q 185 828 142 774 q 284 916 229 883 q 397 966 339 949 q 512 988 456 983 q 613 993 568 993 l 829 993 m 825 153 q 1001 183 933 153 q 1106 263 1068 214 q 1158 374 1144 313 q 1172 497 1172 435 q 1158 621 1172 560 q 1106 731 1144 682 q 1001 810 1068 779 q 825 840 933 840 l 617 840 q 441 810 508 840 q 335 731 374 779 q 283 621 297 682 q 269 497 269 560 q 283 374 269 435 q 335 263 297 313 q 441 183 374 214 q 617 153 508 153 l 825 153 z "},"ó":{"ha":1442,"x_min":89,"x_max":1353,"o":"m 799 1054 l 672 1054 l 865 1369 l 1108 1369 l 799 1054 m 829 993 q 930 988 874 993 q 1044 966 986 983 q 1158 916 1103 949 q 1256 828 1213 883 q 1326 692 1300 774 q 1353 497 1353 611 q 1326 302 1353 383 q 1256 166 1300 221 q 1158 78 1213 111 q 1044 28 1103 46 q 930 6 986 11 q 829 1 874 1 l 613 1 q 512 6 568 1 q 397 28 456 11 q 284 78 339 46 q 185 166 229 111 q 115 302 142 221 q 89 497 89 383 q 115 692 89 611 q 185 828 142 774 q 284 916 229 883 q 397 966 339 949 q 512 988 456 983 q 613 993 568 993 l 829 993 m 825 153 q 1001 183 933 153 q 1106 263 1068 214 q 1158 374 1144 313 q 1172 497 1172 435 q 1158 621 1172 560 q 1106 731 1144 682 q 1001 810 1068 779 q 825 840 933 840 l 617 840 q 441 810 508 840 q 335 731 374 779 q 283 621 297 682 q 269 497 269 560 q 283 374 269 435 q 335 263 297 313 q 441 183 374 214 q 617 153 508 153 l 825 153 z "},"ô":{"ha":1442,"x_min":89,"x_max":1353,"o":"m 1126 1060 l 946 1060 l 721 1318 l 496 1060 l 315 1060 l 638 1414 l 804 1414 l 1126 1060 m 829 993 q 930 988 874 993 q 1044 966 986 983 q 1158 916 1103 949 q 1256 828 1213 883 q 1326 692 1300 774 q 1353 497 1353 611 q 1326 302 1353 383 q 1256 166 1300 221 q 1158 78 1213 111 q 1044 28 1103 46 q 930 6 986 11 q 829 1 874 1 l 613 1 q 512 6 568 1 q 397 28 456 11 q 284 78 339 46 q 185 166 229 111 q 115 302 142 221 q 89 497 89 383 q 115 692 89 611 q 185 828 142 774 q 284 916 229 883 q 397 966 339 949 q 512 988 456 983 q 613 993 568 993 l 829 993 m 825 153 q 1001 183 933 153 q 1106 263 1068 214 q 1158 374 1144 313 q 1172 497 1172 435 q 1158 621 1172 560 q 1106 731 1144 682 q 1001 810 1068 779 q 825 840 933 840 l 617 840 q 441 810 508 840 q 335 731 374 779 q 283 621 297 682 q 269 497 269 560 q 283 374 269 435 q 335 263 297 313 q 441 183 374 214 q 617 153 508 153 l 825 153 z "},"õ":{"ha":1442,"x_min":89,"x_max":1353,"o":"m 926 1179 q 1004 1193 971 1179 q 1061 1222 1038 1207 q 1108 1265 1089 1242 l 1108 1151 q 1063 1108 1090 1128 q 1002 1079 1039 1093 q 914 1065 965 1065 q 810 1082 856 1065 q 724 1119 765 1099 q 640 1156 682 1139 q 549 1172 599 1172 q 460 1156 496 1172 q 401 1119 425 1139 q 357 1065 374 1096 l 357 1193 q 401 1240 374 1219 q 460 1273 425 1258 q 549 1288 496 1288 q 657 1271 611 1288 q 744 1233 703 1254 q 828 1196 786 1213 q 926 1179 871 1179 m 829 993 q 930 988 874 993 q 1044 966 986 983 q 1158 916 1103 949 q 1256 828 1213 883 q 1326 692 1300 774 q 1353 497 1353 611 q 1326 302 1353 383 q 1256 166 1300 221 q 1158 78 1213 111 q 1044 28 1103 46 q 930 6 986 11 q 829 1 874 1 l 613 1 q 512 6 568 1 q 397 28 456 11 q 284 78 339 46 q 185 166 229 111 q 115 302 142 221 q 89 497 89 383 q 115 692 89 611 q 185 828 142 774 q 284 916 229 883 q 397 966 339 949 q 512 988 456 983 q 613 993 568 993 l 829 993 m 825 153 q 1001 183 933 153 q 1106 263 1068 214 q 1158 374 1144 313 q 1172 497 1172 435 q 1158 621 1172 560 q 1106 731 1144 682 q 1001 810 1068 779 q 825 840 933 840 l 617 840 q 441 810 508 840 q 335 731 374 779 q 283 621 297 682 q 269 497 269 560 q 283 374 269 435 q 335 263 297 313 q 441 183 374 214 q 617 153 508 153 l 825 153 z "},"ö":{"ha":1442,"x_min":89,"x_max":1353,"o":"m 522 1064 q 476 1072 497 1064 q 438 1094 454 1081 q 413 1128 422 1108 q 404 1168 404 1147 q 439 1242 404 1213 q 522 1272 474 1272 q 607 1242 572 1272 q 642 1168 642 1213 q 607 1094 642 1125 q 522 1064 572 1064 m 825 1272 q 910 1242 875 1272 q 944 1168 944 1213 q 910 1094 944 1125 q 825 1064 875 1064 q 778 1072 800 1064 q 741 1094 757 1081 q 716 1128 725 1108 q 707 1168 707 1147 q 742 1242 707 1213 q 825 1272 776 1272 m 829 993 q 930 988 874 993 q 1044 966 986 983 q 1158 916 1103 949 q 1256 828 1213 883 q 1326 692 1300 774 q 1353 497 1353 611 q 1326 302 1353 383 q 1256 166 1300 221 q 1158 78 1213 111 q 1044 28 1103 46 q 930 6 986 11 q 829 1 874 1 l 613 1 q 512 6 568 1 q 397 28 456 11 q 284 78 339 46 q 185 166 229 111 q 115 302 142 221 q 89 497 89 383 q 115 692 89 611 q 185 828 142 774 q 284 916 229 883 q 397 966 339 949 q 512 988 456 983 q 613 993 568 993 l 829 993 m 825 153 q 1001 183 933 153 q 1106 263 1068 214 q 1158 374 1144 313 q 1172 497 1172 435 q 1158 621 1172 560 q 1106 731 1144 682 q 1001 810 1068 779 q 825 840 933 840 l 617 840 q 441 810 508 840 q 335 731 374 779 q 283 621 297 682 q 269 497 269 560 q 283 374 269 435 q 335 263 297 313 q 441 183 374 214 q 617 153 508 153 l 825 153 z "},"ù":{"ha":1440,"x_min":89,"x_max":1351,"o":"m 629 1079 l 319 1394 l 564 1394 l 756 1079 l 629 1079 m 268 993 l 268 492 q 299 317 268 386 q 383 206 329 247 q 513 149 438 165 q 675 132 588 132 q 874 169 781 132 q 1036 262 967 206 q 1146 386 1106 318 q 1186 515 1186 454 l 1186 993 l 1351 993 l 1351 1 l 1186 1 l 1186 238 q 1080 128 1143 175 q 946 51 1017 82 q 800 3 875 19 q 657 -12 725 -12 q 442 8 544 -12 q 260 83 339 29 q 135 232 182 138 q 89 475 89 326 l 89 993 l 268 993 z "},"ú":{"ha":1440,"x_min":89,"x_max":1351,"o":"m 701 1067 l 575 1067 l 768 1382 l 1011 1382 l 701 1067 m 268 993 l 268 492 q 299 317 268 386 q 383 206 329 247 q 513 149 438 165 q 675 132 588 132 q 874 169 781 132 q 1036 262 967 206 q 1146 386 1106 318 q 1186 515 1186 454 l 1186 993 l 1351 993 l 1351 1 l 1186 1 l 1186 238 q 1080 128 1143 175 q 946 51 1017 82 q 800 3 875 19 q 657 -12 725 -12 q 442 8 544 -12 q 260 83 339 29 q 135 232 182 138 q 89 475 89 326 l 89 993 l 268 993 z "},"û":{"ha":1440,"x_min":89,"x_max":1351,"o":"m 1139 1069 l 958 1069 l 733 1328 l 508 1069 l 328 1069 l 650 1424 l 817 1424 l 1139 1069 m 268 993 l 268 492 q 299 317 268 386 q 383 206 329 247 q 513 149 438 165 q 675 132 588 132 q 874 169 781 132 q 1036 262 967 206 q 1146 386 1106 318 q 1186 515 1186 454 l 1186 993 l 1351 993 l 1351 1 l 1186 1 l 1186 238 q 1080 128 1143 175 q 946 51 1017 82 q 800 3 875 19 q 657 -12 725 -12 q 442 8 544 -12 q 260 83 339 29 q 135 232 182 138 q 89 475 89 326 l 89 993 l 268 993 z "},"ü":{"ha":1440,"x_min":89,"x_max":1351,"o":"m 526 1063 q 480 1071 501 1063 q 442 1093 458 1079 q 417 1126 426 1107 q 408 1167 408 1146 q 443 1241 408 1211 q 526 1271 478 1271 q 611 1241 576 1271 q 646 1167 646 1211 q 611 1093 646 1124 q 526 1063 576 1063 m 829 1271 q 914 1241 879 1271 q 949 1167 949 1211 q 914 1093 949 1124 q 829 1063 879 1063 q 783 1071 804 1063 q 745 1093 761 1079 q 720 1126 729 1107 q 711 1167 711 1146 q 746 1241 711 1211 q 829 1271 781 1271 m 268 993 l 268 492 q 299 317 268 386 q 383 206 329 247 q 513 149 438 165 q 675 132 588 132 q 874 169 781 132 q 1036 262 967 206 q 1146 386 1106 318 q 1186 515 1186 454 l 1186 993 l 1351 993 l 1351 1 l 1186 1 l 1186 238 q 1080 128 1143 175 q 946 51 1017 82 q 800 3 875 19 q 657 -12 725 -12 q 442 8 544 -12 q 260 83 339 29 q 135 232 182 138 q 89 475 89 326 l 89 993 l 268 993 z "},"ý":{"ha":1442,"x_min":89,"x_max":1353,"o":"m 765 1061 l 639 1061 l 832 1376 l 1075 1376 l 765 1061 m 1353 993 l 1353 497 q 1326 302 1353 383 q 1256 166 1300 221 q 1158 78 1213 111 q 1044 28 1103 46 q 930 6 986 11 q 829 1 874 1 l 511 1 q 351 21 424 1 q 224 76 279 40 q 135 164 169 113 q 89 279 100 215 l 236 328 q 279 240 246 279 q 313 208 293 224 q 360 181 332 193 q 424 160 388 168 q 506 153 460 153 l 868 153 q 999 171 940 153 q 1099 226 1057 189 q 1163 316 1140 263 q 1186 440 1186 369 l 1186 489 q 1097 438 1144 457 q 1001 409 1049 419 q 910 395 954 399 q 829 392 865 392 l 613 392 q 512 397 568 392 q 397 419 456 401 q 284 469 339 436 q 185 556 229 501 q 115 692 142 611 q 89 888 89 774 l 89 993 l 256 993 l 256 846 q 335 624 256 704 q 578 544 414 544 l 911 544 q 1119 624 1053 544 q 1186 846 1186 704 l 1186 993 l 1353 993 z "},"ÿ":{"ha":1442,"x_min":89,"x_max":1353,"o":"m 528 1069 q 481 1078 503 1069 q 444 1100 460 1086 q 419 1133 428 1114 q 410 1174 410 1153 q 444 1248 410 1218 q 528 1278 479 1278 q 613 1248 578 1278 q 647 1174 647 1218 q 613 1100 647 1131 q 528 1069 578 1069 m 831 1278 q 915 1248 881 1278 q 950 1174 950 1218 q 915 1100 950 1131 q 831 1069 881 1069 q 784 1078 806 1069 q 747 1100 763 1086 q 722 1133 731 1114 q 713 1174 713 1153 q 747 1248 713 1218 q 831 1278 782 1278 m 1353 993 l 1353 497 q 1326 302 1353 383 q 1256 166 1300 221 q 1158 78 1213 111 q 1044 28 1103 46 q 930 6 986 11 q 829 1 874 1 l 511 1 q 351 21 424 1 q 224 76 279 40 q 135 164 169 113 q 89 279 100 215 l 236 328 q 279 240 246 279 q 313 208 293 224 q 360 181 332 193 q 424 160 388 168 q 506 153 460 153 l 868 153 q 999 171 940 153 q 1099 226 1057 189 q 1163 316 1140 263 q 1186 440 1186 369 l 1186 489 q 1097 438 1144 457 q 1001 409 1049 419 q 910 395 954 399 q 829 392 865 392 l 613 392 q 512 397 568 392 q 397 419 456 401 q 284 469 339 436 q 185 556 229 501 q 115 692 142 611 q 89 888 89 774 l 89 993 l 256 993 l 256 846 q 335 624 256 704 q 578 544 414 544 l 911 544 q 1119 624 1053 544 q 1186 846 1186 704 l 1186 993 l 1353 993 z "},"ı":{"ha":888,"x_min":89,"x_max":799,"o":"m 89 993 l 799 993 l 799 868 l 529 868 l 529 125 l 799 125 l 799 1 l 89 1 l 89 125 l 361 125 l 361 868 l 89 868 l 89 993 z "},"Ł":{"ha":1256,"x_min":-56,"x_max":1167,"o":"m 1167 122 l 1167 1 l 89 1 l 89 293 l -3 253 l -56 374 l 89 438 l 89 993 l 254 993 l 254 510 l 575 650 l 628 529 l 254 365 l 254 122 l 1167 122 z "},"ł":{"ha":1256,"x_min":-56,"x_max":1167,"o":"m 254 122 l 1167 122 l 1167 1 l 89 1 l 89 293 l -3 253 l -56 374 l 89 438 l 89 993 l 254 993 l 254 510 l 575 650 l 628 529 l 254 365 l 254 122 z "},"Š":{"ha":1294,"x_min":89,"x_max":1206,"o":"m 565 1061 l 243 1415 l 424 1415 l 649 1157 l 872 1415 l 1053 1415 l 732 1061 l 565 1061 m 256 715 q 297 633 256 661 q 404 590 338 604 q 556 572 471 576 q 731 563 642 568 q 905 547 819 558 q 1057 506 990 535 q 1165 426 1124 478 q 1206 292 1206 375 q 1200 231 1206 264 q 1178 167 1194 199 q 1130 105 1161 135 q 1047 52 1099 75 q 918 15 994 29 q 735 1 842 1 l 558 1 q 375 19 451 1 q 247 66 299 38 q 163 132 194 94 q 115 208 132 169 q 94 283 99 246 q 89 347 89 319 l 256 347 q 268 268 256 304 q 310 206 281 232 q 387 167 339 181 q 506 153 435 153 l 818 153 q 979 183 918 153 q 1040 278 1040 213 q 999 361 1040 332 q 892 404 958 390 q 740 423 825 418 q 565 433 654 428 q 390 451 475 439 q 238 494 304 464 q 130 576 171 524 q 89 715 89 629 q 102 807 89 758 q 163 897 115 856 q 305 966 211 939 q 558 993 399 993 l 735 993 q 917 975 842 993 q 1045 928 993 957 q 1128 862 1097 899 q 1176 786 1160 825 q 1198 711 1193 747 q 1203 646 1203 675 l 1038 646 q 1025 726 1038 690 q 983 787 1013 761 q 906 826 954 813 q 788 840 858 840 l 475 840 q 315 811 375 840 q 256 715 256 782 z "},"š":{"ha":1294,"x_min":89,"x_max":1206,"o":"m 564 1064 l 242 1418 l 422 1418 l 647 1160 l 871 1418 l 1051 1418 l 731 1064 l 564 1064 m 256 715 q 297 633 256 661 q 404 590 338 604 q 556 572 471 576 q 731 563 642 568 q 905 547 819 558 q 1057 506 990 535 q 1165 426 1124 478 q 1206 292 1206 375 q 1200 231 1206 264 q 1178 167 1194 199 q 1130 105 1161 135 q 1047 52 1099 75 q 918 15 994 29 q 735 1 842 1 l 558 1 q 375 19 451 1 q 247 66 299 38 q 163 132 194 94 q 115 208 132 169 q 94 283 99 246 q 89 347 89 319 l 256 347 q 268 268 256 304 q 310 206 281 232 q 387 167 339 181 q 506 153 435 153 l 818 153 q 979 183 918 153 q 1040 278 1040 213 q 999 361 1040 332 q 892 404 958 390 q 740 423 825 418 q 565 433 654 428 q 390 451 475 439 q 238 494 304 464 q 130 576 171 524 q 89 715 89 629 q 102 807 89 758 q 163 897 115 856 q 305 966 211 939 q 558 993 399 993 l 735 993 q 917 975 842 993 q 1045 928 993 957 q 1128 862 1097 899 q 1176 786 1160 825 q 1198 711 1193 747 q 1203 646 1203 675 l 1038 646 q 1025 726 1038 690 q 983 787 1013 761 q 906 826 954 813 q 788 840 858 840 l 475 840 q 315 811 375 840 q 256 715 256 782 z "},"Ÿ":{"ha":1447,"x_min":89,"x_max":1358,"o":"m 531 1061 q 484 1069 506 1061 q 447 1092 463 1078 q 422 1125 431 1106 q 413 1165 413 1144 q 447 1240 413 1210 q 531 1269 482 1269 q 615 1240 581 1269 q 650 1165 650 1210 q 615 1092 650 1122 q 531 1061 581 1061 m 833 1269 q 918 1240 883 1269 q 953 1165 953 1210 q 918 1092 953 1122 q 833 1061 883 1061 q 787 1069 808 1061 q 749 1092 765 1078 q 724 1125 733 1106 q 715 1165 715 1144 q 750 1240 715 1210 q 833 1269 785 1269 m 1358 990 l 807 354 l 807 0 l 640 0 l 640 354 l 89 990 l 314 990 l 724 508 l 1133 990 l 1358 990 z "},"Ž":{"ha":1442,"x_min":89,"x_max":1353,"o":"m 639 1061 l 317 1415 l 497 1415 l 722 1157 l 946 1415 l 1126 1415 l 806 1061 l 639 1061 m 1353 849 l 368 151 l 1353 151 l 1353 0 l 89 0 l 89 142 l 1074 839 l 103 839 l 103 990 l 1353 990 l 1353 849 z "},"ž":{"ha":1440,"x_min":89,"x_max":1351,"o":"m 699 1060 l 376 1414 l 557 1414 l 782 1156 l 1006 1414 l 1186 1414 l 865 1060 l 699 1060 m 1351 850 l 367 153 l 1351 153 l 1351 1 l 89 1 l 89 144 l 1074 840 l 103 840 l 103 993 l 1351 993 l 1351 850 z "},"→":{"ha":1539,"x_min":90,"x_max":1449,"o":"m 990 0 l 753 0 l 1158 413 l 90 413 l 90 579 l 1158 579 l 753 992 l 990 992 l 1449 496 l 990 0 z "},"←":{"ha":1539,"x_min":90,"x_max":1449,"o":"m 381 272 l 1449 272 l 1449 106 l 381 106 l 786 -307 l 549 -307 l 90 189 l 549 685 l 786 685 l 381 272 z "},"↑":{"ha":1171,"x_min":90,"x_max":1081,"o":"m 1081 172 l 668 578 l 668 -490 l 503 -490 l 503 578 l 90 172 l 90 410 l 585 868 l 1081 410 l 1081 172 z "},"↓":{"ha":1171,"x_min":90,"x_max":1081,"o":"m 668 -200 l 1081 206 l 1081 -32 l 586 -490 l 90 -32 l 90 206 l 503 -200 l 503 868 l 668 868 l 668 -200 z "}}}
